<?xml version="1.0" encoding="utf-8"?>
<!-- Generator: Adobe Illustrator 19.1.0, SVG Export Plug-In . SVG Version: 6.00 Build 0)  -->
<svg version="1.1" xmlns="http://www.w3.org/2000/svg" xmlns:xlink="http://www.w3.org/1999/xlink" x="0px" y="0px"
	 viewBox="0 0 1600 1101.362" enable-background="new 0 0 1600 1101.362" xml:space="preserve">
<g id="bak-b0">
</g>
<g id="CCC-c0">
</g>
<g id="vexels">
	<g>
		<g>
			<rect x="-36.416" y="-48.166" fill="#EDEACB" width="237.499" height="363.864"/>
			<rect x="-36.416" y="-48.166" fill="#83A6AA" width="70.909" height="363.864"/>
			<rect x="-36.416" y="-48.166" fill="#148082" width="39.641" height="333.957"/>
			<g>
				<g>
					<g>
						<rect x="52.519" y="-48.166" fill="#83A6AA" width="34.688" height="52.775"/>
						<rect x="100.133" y="-48.166" fill="#83A6AA" width="34.688" height="52.775"/>
						<rect x="147.746" y="-48.166" fill="#83A6AA" width="34.688" height="52.775"/>
					</g>
					<g>
						<rect x="52.519" y="20.924" fill="#83A6AA" width="34.688" height="53.98"/>
						<rect x="100.133" y="20.924" fill="#83A6AA" width="34.688" height="53.98"/>
						<rect x="147.746" y="20.924" fill="#83A6AA" width="34.688" height="53.98"/>
					</g>
					<g>
						<rect x="52.519" y="91.219" fill="#83A6AA" width="34.688" height="53.981"/>
						<rect x="100.133" y="91.219" fill="#83A6AA" width="34.688" height="53.981"/>
						<rect x="147.746" y="91.219" fill="#83A6AA" width="34.688" height="53.981"/>
					</g>
					<g>
						<rect x="52.519" y="161.515" fill="#83A6AA" width="34.688" height="53.98"/>
						<rect x="100.133" y="161.515" fill="#83A6AA" width="34.688" height="53.98"/>
						<rect x="147.746" y="161.515" fill="#83A6AA" width="34.688" height="53.98"/>
					</g>
					<g>
						<rect x="52.519" y="231.81" fill="#83A6AA" width="34.688" height="53.98"/>
						<rect x="100.133" y="231.81" fill="#83A6AA" width="34.688" height="53.98"/>
						<rect x="147.746" y="231.81" fill="#83A6AA" width="34.688" height="53.98"/>
					</g>
				</g>
			</g>
			<g>
				<g>
					<rect x="201.083" y="-6.656" fill="#D9A134" width="21.101" height="11.264"/>
					<rect x="201.083" y="63.64" fill="#D9A134" width="21.101" height="11.264"/>
					<rect x="201.083" y="133.936" fill="#D9A134" width="21.101" height="11.264"/>
					<rect x="201.083" y="204.231" fill="#D9A134" width="21.101" height="11.264"/>
					<rect x="201.083" y="274.527" fill="#D9A134" width="21.101" height="11.264"/>
				</g>
			</g>
			<rect x="-36.416" y="315.698" fill="#EDEACB" width="297.82" height="38.251"/>
			<rect x="-36.416" y="513.996" fill="#EDEACB" width="297.82" height="28.3"/>
			<rect x="-36.416" y="353.949" fill="#EDEACB" width="270.026" height="160.047"/>
			<rect x="-36.416" y="542.296" fill="#EDEACB" width="237.499" height="134.809"/>
			<rect x="34.493" y="367.653" fill="#D9A134" width="166.589" height="133.644"/>
			<g>
				<g>
					<rect x="52.519" y="384.614" fill="#83A6AA" width="34.688" height="45.652"/>
					<rect x="100.133" y="384.614" fill="#83A6AA" width="34.688" height="45.652"/>
					<rect x="147.746" y="384.614" fill="#83A6AA" width="34.688" height="45.652"/>
				</g>
				<g>
					<rect x="52.519" y="444.063" fill="#83A6AA" width="34.688" height="45.652"/>
					<rect x="100.133" y="444.063" fill="#83A6AA" width="34.688" height="45.652"/>
					<rect x="147.746" y="444.063" fill="#83A6AA" width="34.688" height="45.652"/>
				</g>
			</g>
			<g>
				<rect x="52.665" y="578.9" fill="#148082" width="34.688" height="98.205"/>
				<rect x="60.618" y="594.806" fill="#83A6AA" width="18.784" height="82.3"/>
				<rect x="100.206" y="578.9" fill="#148082" width="34.688" height="98.205"/>
				<rect x="108.158" y="594.806" fill="#83A6AA" width="18.784" height="82.3"/>
				<rect x="147.746" y="578.9" fill="#148082" width="34.688" height="98.205"/>
				<rect x="155.699" y="594.806" fill="#83A6AA" width="18.784" height="82.3"/>
				<rect x="5.125" y="578.9" fill="#148082" width="34.688" height="98.205"/>
				<rect x="13.076" y="594.806" fill="#83A6AA" width="18.785" height="82.3"/>
			</g>
		</g>
		<g>
			<g>
				<rect x="1058.337" y="-48.166" fill="#148082" width="348.631" height="539.787"/>
				<g>
					<rect x="1058.337" y="-48.166" fill="#D9A134" width="11.296" height="539.787"/>
					<rect x="1089.005" y="-48.166" fill="#D9A134" width="11.295" height="539.787"/>
					<rect x="1119.671" y="-48.166" fill="#D9A134" width="11.296" height="539.787"/>
					<rect x="1150.338" y="-48.166" fill="#D9A134" width="11.296" height="539.787"/>
					<rect x="1181.005" y="-48.166" fill="#D9A134" width="11.296" height="539.787"/>
					<rect x="1211.672" y="-48.166" fill="#D9A134" width="11.295" height="539.787"/>
					<rect x="1242.339" y="-48.166" fill="#D9A134" width="11.296" height="539.787"/>
					<rect x="1273.005" y="-48.166" fill="#D9A134" width="11.296" height="539.787"/>
					<rect x="1303.673" y="-48.166" fill="#D9A134" width="11.295" height="539.787"/>
					<rect x="1334.34" y="-48.166" fill="#D9A134" width="11.296" height="539.787"/>
					<rect x="1365.007" y="-48.166" fill="#D9A134" width="11.295" height="539.787"/>
					<rect x="1395.674" y="-48.166" fill="#D9A134" width="11.295" height="539.787"/>
				</g>
			</g>
			<rect x="998.287" y="491.621" fill="#D9A134" width="468.731" height="52.192"/>
			<rect x="1013.129" y="543.812" fill="#148082" width="439.049" height="133.293"/>
			<g>
				<rect x="1026.066" y="553.913" fill="#003631" width="75.065" height="111.434"/>
				<rect x="1110.593" y="553.913" fill="#003631" width="75.065" height="111.434"/>
				<rect x="1195.121" y="553.913" fill="#003631" width="75.065" height="111.434"/>
				<rect x="1279.648" y="553.913" fill="#003631" width="75.065" height="111.434"/>
				<rect x="1364.175" y="553.913" fill="#003631" width="75.065" height="111.434"/>
			</g>
		</g>
		<g>
			<rect x="1374.839" y="-48.166" fill="#EDEACB" width="298.403" height="725.272"/>
			<g>
				<g>
					<rect x="1400.46" y="-26.528" fill="#D9A134" width="25.053" height="43.512"/>
					<rect x="1452.511" y="-26.528" fill="#D9A134" width="25.053" height="43.512"/>
				</g>
				<g>
					<rect x="1518.369" y="-26.528" fill="#D9A134" width="25.053" height="43.512"/>
					<rect x="1557.78" y="-26.528" fill="#D9A134" width="25.053" height="43.512"/>
					<rect x="1597.191" y="-26.528" fill="#D9A134" width="25.053" height="43.512"/>
				</g>
				<g>
					<rect x="1400.46" y="45.879" fill="#D9A134" width="25.053" height="43.512"/>
					<rect x="1452.511" y="45.879" fill="#D9A134" width="25.053" height="43.512"/>
				</g>
				<g>
					<rect x="1518.369" y="45.879" fill="#D9A134" width="25.053" height="43.512"/>
					<rect x="1557.78" y="45.879" fill="#D9A134" width="25.053" height="43.512"/>
					<rect x="1597.191" y="45.879" fill="#D9A134" width="25.053" height="43.512"/>
				</g>
				<g>
					<rect x="1400.46" y="118.286" fill="#D9A134" width="25.053" height="43.512"/>
					<rect x="1452.511" y="118.286" fill="#D9A134" width="25.053" height="43.512"/>
				</g>
				<g>
					<rect x="1518.369" y="118.286" fill="#D9A134" width="25.053" height="43.512"/>
					<rect x="1557.78" y="118.286" fill="#D9A134" width="25.053" height="43.512"/>
					<rect x="1597.191" y="118.286" fill="#D9A134" width="25.053" height="43.512"/>
				</g>
				<g>
					<rect x="1400.46" y="190.691" fill="#D9A134" width="25.053" height="43.514"/>
					<rect x="1452.511" y="190.691" fill="#D9A134" width="25.053" height="43.514"/>
				</g>
				<g>
					<rect x="1518.369" y="190.691" fill="#D9A134" width="25.053" height="43.514"/>
					<rect x="1557.78" y="190.691" fill="#D9A134" width="25.053" height="43.514"/>
					<rect x="1597.191" y="190.691" fill="#D9A134" width="25.053" height="43.514"/>
				</g>
				<g>
					<rect x="1400.46" y="263.098" fill="#D9A134" width="25.053" height="43.513"/>
					<rect x="1452.511" y="263.098" fill="#D9A134" width="25.053" height="43.513"/>
				</g>
				<g>
					<rect x="1518.369" y="263.098" fill="#D9A134" width="25.053" height="43.513"/>
					<rect x="1557.78" y="263.098" fill="#D9A134" width="25.053" height="43.513"/>
					<rect x="1597.191" y="263.098" fill="#D9A134" width="25.053" height="43.513"/>
				</g>
				<g>
					<rect x="1400.46" y="335.505" fill="#D9A134" width="25.053" height="43.513"/>
					<rect x="1452.511" y="335.505" fill="#D9A134" width="25.053" height="43.513"/>
				</g>
				<g>
					<rect x="1518.369" y="335.505" fill="#D9A134" width="25.053" height="43.513"/>
					<rect x="1557.78" y="335.505" fill="#D9A134" width="25.053" height="43.513"/>
					<rect x="1597.191" y="335.505" fill="#D9A134" width="25.053" height="43.513"/>
				</g>
				<g>
					<rect x="1400.46" y="407.911" fill="#D9A134" width="25.053" height="43.513"/>
					<rect x="1452.511" y="407.911" fill="#D9A134" width="25.053" height="43.513"/>
				</g>
				<g>
					<rect x="1518.369" y="407.911" fill="#D9A134" width="25.053" height="43.513"/>
					<rect x="1557.78" y="407.911" fill="#D9A134" width="25.053" height="43.513"/>
					<rect x="1597.191" y="407.911" fill="#D9A134" width="25.053" height="43.513"/>
				</g>
			</g>
			<g>
				<rect x="1374.839" y="472.305" fill="#D6D0A3" width="298.403" height="7.837"/>
			</g>
			<rect x="1400.46" y="500.988" fill="#534133" width="77.103" height="59.529"/>
			<rect x="1410.744" y="510.15" fill="#148082" width="56.917" height="44.935"/>
			<rect x="1518.369" y="500.988" fill="#534133" width="103.875" height="59.529"/>
			<rect x="1527.575" y="510.15" fill="#148082" width="86.874" height="44.935"/>
			<rect x="1400.46" y="589.609" fill="#534133" width="77.103" height="59.529"/>
			<rect x="1410.744" y="597.024" fill="#148082" width="56.917" height="44.935"/>
			<rect x="1518.369" y="589.609" fill="#534133" width="103.875" height="59.529"/>
			<rect x="1527.575" y="597.024" fill="#148082" width="86.874" height="44.935"/>
			<rect x="1491.097" y="-48.166" fill="#D6D0A3" width="7.924" height="524.389"/>
			<rect x="1374.839" y="-48.166" fill="#D6D0A3" width="7.924" height="520.571"/>
		</g>
		<g>
			<rect x="505.116" y="-48.166" fill="#EDEACB" width="554.084" height="725.272"/>
			<rect x="505.116" y="496.389" fill="#D9A134" width="554.084" height="42.708"/>
			<g>
				<rect x="620.937" y="539.097" fill="#D9A134" width="47.594" height="138.008"/>
				<rect x="758.36" y="539.097" fill="#D9A134" width="47.594" height="138.008"/>
				<rect x="895.785" y="539.097" fill="#D9A134" width="47.594" height="138.008"/>
			</g>
			<rect x="620.937" y="-48.166" fill="#D6E6DC" width="322.442" height="544.555"/>
			<g>
				<g>
					<g>
						<rect x="526.592" y="20.974" fill="#148082" width="28.758" height="29.557"/>
						<rect x="572.112" y="20.974" fill="#148082" width="28.759" height="29.557"/>
					</g>
					<g>
						<rect x="526.592" y="87.965" fill="#148082" width="28.758" height="29.557"/>
						<rect x="572.112" y="87.965" fill="#148082" width="28.759" height="29.557"/>
					</g>
					<g>
						<rect x="526.592" y="154.957" fill="#148082" width="28.758" height="29.557"/>
						<rect x="572.112" y="154.957" fill="#148082" width="28.759" height="29.557"/>
					</g>
					<g>
						<rect x="526.592" y="221.949" fill="#148082" width="28.758" height="29.557"/>
						<rect x="572.112" y="221.949" fill="#148082" width="28.759" height="29.557"/>
					</g>
					<g>
						<rect x="526.592" y="288.941" fill="#148082" width="28.758" height="29.557"/>
						<rect x="572.112" y="288.941" fill="#148082" width="28.759" height="29.557"/>
					</g>
					<g>
						<rect x="526.592" y="355.933" fill="#148082" width="28.758" height="29.557"/>
						<rect x="572.112" y="355.933" fill="#148082" width="28.759" height="29.557"/>
					</g>
					<g>
						<rect x="526.592" y="422.925" fill="#148082" width="28.758" height="29.557"/>
						<rect x="572.112" y="422.925" fill="#148082" width="28.759" height="29.557"/>
					</g>
				</g>
				<g>
					<g>
						<rect x="1008.966" y="20.974" fill="#148082" width="28.758" height="29.557"/>
						<rect x="963.446" y="20.974" fill="#148082" width="28.758" height="29.557"/>
					</g>
					<g>
						<rect x="1008.966" y="87.965" fill="#148082" width="28.758" height="29.557"/>
						<rect x="963.446" y="87.965" fill="#148082" width="28.758" height="29.557"/>
					</g>
					<g>
						<rect x="1008.966" y="154.957" fill="#148082" width="28.758" height="29.557"/>
						<rect x="963.446" y="154.957" fill="#148082" width="28.758" height="29.557"/>
					</g>
					<g>
						<rect x="1008.966" y="221.949" fill="#148082" width="28.758" height="29.557"/>
						<rect x="963.446" y="221.949" fill="#148082" width="28.758" height="29.557"/>
					</g>
					<g>
						<rect x="1008.966" y="288.941" fill="#148082" width="28.758" height="29.557"/>
						<rect x="963.446" y="288.941" fill="#148082" width="28.758" height="29.557"/>
					</g>
					<g>
						<rect x="1008.966" y="355.933" fill="#148082" width="28.758" height="29.557"/>
						<rect x="963.446" y="355.933" fill="#148082" width="28.758" height="29.557"/>
					</g>
					<g>
						<rect x="1008.966" y="422.925" fill="#148082" width="28.758" height="29.557"/>
						<rect x="963.446" y="422.925" fill="#148082" width="28.758" height="29.557"/>
					</g>
				</g>
			</g>
			<g>
				<rect x="629.955" y="-22.172" fill="#148082" width="9.085" height="28.362"/>
				<rect x="646.361" y="-22.172" fill="#148082" width="9.086" height="28.362"/>
				<rect x="662.768" y="-22.172" fill="#148082" width="9.086" height="28.362"/>
				<rect x="679.175" y="-22.172" fill="#148082" width="9.086" height="28.362"/>
				<rect x="695.581" y="-22.172" fill="#148082" width="9.086" height="28.362"/>
				<rect x="711.988" y="-22.172" fill="#148082" width="9.086" height="28.362"/>
				<rect x="728.395" y="-22.172" fill="#148082" width="9.086" height="28.362"/>
				<rect x="744.801" y="-22.172" fill="#148082" width="9.086" height="28.362"/>
				<rect x="761.208" y="-22.172" fill="#148082" width="9.085" height="28.362"/>
				<rect x="777.615" y="-22.172" fill="#148082" width="9.086" height="28.362"/>
				<rect x="794.022" y="-22.172" fill="#148082" width="9.086" height="28.362"/>
				<rect x="810.429" y="-22.172" fill="#148082" width="9.086" height="28.362"/>
				<rect x="826.835" y="-22.172" fill="#148082" width="9.086" height="28.362"/>
				<rect x="843.242" y="-22.172" fill="#148082" width="9.086" height="28.362"/>
				<rect x="859.648" y="-22.172" fill="#148082" width="9.086" height="28.362"/>
				<rect x="876.055" y="-22.172" fill="#148082" width="9.085" height="28.362"/>
				<rect x="892.462" y="-22.172" fill="#148082" width="9.086" height="28.362"/>
				<rect x="908.869" y="-22.172" fill="#148082" width="9.086" height="28.362"/>
				<rect x="925.276" y="-22.172" fill="#148082" width="9.086" height="28.362"/>
			</g>
			<g>
				<rect x="629.955" y="25.097" fill="#148082" width="9.085" height="28.362"/>
				<rect x="646.361" y="25.097" fill="#148082" width="9.086" height="28.362"/>
				<rect x="662.768" y="25.097" fill="#148082" width="9.086" height="28.362"/>
				<rect x="679.175" y="25.097" fill="#148082" width="9.086" height="28.362"/>
				<rect x="695.581" y="25.097" fill="#148082" width="9.086" height="28.362"/>
				<rect x="711.988" y="25.097" fill="#148082" width="9.086" height="28.362"/>
				<rect x="728.395" y="25.097" fill="#148082" width="9.086" height="28.362"/>
				<rect x="744.801" y="25.097" fill="#148082" width="9.086" height="28.362"/>
				<rect x="761.208" y="25.097" fill="#148082" width="9.085" height="28.362"/>
				<rect x="777.615" y="25.097" fill="#148082" width="9.086" height="28.362"/>
				<rect x="794.022" y="25.097" fill="#148082" width="9.086" height="28.362"/>
				<rect x="810.429" y="25.097" fill="#148082" width="9.086" height="28.362"/>
				<rect x="826.835" y="25.097" fill="#148082" width="9.086" height="28.362"/>
				<rect x="843.242" y="25.097" fill="#148082" width="9.086" height="28.362"/>
				<rect x="859.648" y="25.097" fill="#148082" width="9.086" height="28.362"/>
				<rect x="876.055" y="25.097" fill="#148082" width="9.085" height="28.362"/>
				<rect x="892.462" y="25.097" fill="#148082" width="9.086" height="28.362"/>
				<rect x="908.869" y="25.097" fill="#148082" width="9.086" height="28.362"/>
				<rect x="925.276" y="25.097" fill="#148082" width="9.086" height="28.362"/>
			</g>
			<g>
				<rect x="629.955" y="72.366" fill="#148082" width="9.085" height="28.361"/>
				<rect x="646.361" y="72.366" fill="#148082" width="9.086" height="28.361"/>
				<rect x="662.768" y="72.366" fill="#148082" width="9.086" height="28.361"/>
				<rect x="679.175" y="72.366" fill="#148082" width="9.086" height="28.361"/>
				<rect x="695.581" y="72.366" fill="#148082" width="9.086" height="28.361"/>
				<rect x="711.988" y="72.366" fill="#148082" width="9.086" height="28.361"/>
				<rect x="728.395" y="72.366" fill="#148082" width="9.086" height="28.361"/>
				<rect x="744.801" y="72.366" fill="#148082" width="9.086" height="28.361"/>
				<rect x="761.208" y="72.366" fill="#148082" width="9.085" height="28.361"/>
				<rect x="777.615" y="72.366" fill="#148082" width="9.086" height="28.361"/>
				<rect x="794.022" y="72.366" fill="#148082" width="9.086" height="28.361"/>
				<rect x="810.429" y="72.366" fill="#148082" width="9.086" height="28.361"/>
				<rect x="826.835" y="72.366" fill="#148082" width="9.086" height="28.361"/>
				<rect x="843.242" y="72.366" fill="#148082" width="9.086" height="28.361"/>
				<rect x="859.648" y="72.366" fill="#148082" width="9.086" height="28.361"/>
				<rect x="876.055" y="72.366" fill="#148082" width="9.085" height="28.361"/>
				<rect x="892.462" y="72.366" fill="#148082" width="9.086" height="28.361"/>
				<rect x="908.869" y="72.366" fill="#148082" width="9.086" height="28.361"/>
				<rect x="925.276" y="72.366" fill="#148082" width="9.086" height="28.361"/>
			</g>
			<g>
				<rect x="629.955" y="119.635" fill="#148082" width="9.085" height="28.361"/>
				<rect x="646.361" y="119.635" fill="#148082" width="9.086" height="28.361"/>
				<rect x="662.768" y="119.635" fill="#148082" width="9.086" height="28.361"/>
				<rect x="679.175" y="119.635" fill="#148082" width="9.086" height="28.361"/>
				<rect x="695.581" y="119.635" fill="#148082" width="9.086" height="28.361"/>
				<rect x="711.988" y="119.635" fill="#148082" width="9.086" height="28.361"/>
				<rect x="728.395" y="119.635" fill="#148082" width="9.086" height="28.361"/>
				<rect x="744.801" y="119.635" fill="#148082" width="9.086" height="28.361"/>
				<rect x="761.208" y="119.635" fill="#148082" width="9.085" height="28.361"/>
				<rect x="777.615" y="119.635" fill="#148082" width="9.086" height="28.361"/>
				<rect x="794.022" y="119.635" fill="#148082" width="9.086" height="28.361"/>
				<rect x="810.429" y="119.635" fill="#148082" width="9.086" height="28.361"/>
				<rect x="826.835" y="119.635" fill="#148082" width="9.086" height="28.361"/>
				<rect x="843.242" y="119.635" fill="#148082" width="9.086" height="28.361"/>
				<rect x="859.648" y="119.635" fill="#148082" width="9.086" height="28.361"/>
				<rect x="876.055" y="119.635" fill="#148082" width="9.085" height="28.361"/>
				<rect x="892.462" y="119.635" fill="#148082" width="9.086" height="28.361"/>
				<rect x="908.869" y="119.635" fill="#148082" width="9.086" height="28.361"/>
				<rect x="925.276" y="119.635" fill="#148082" width="9.086" height="28.361"/>
			</g>
			<g>
				<rect x="629.955" y="166.903" fill="#148082" width="9.085" height="28.362"/>
				<rect x="646.361" y="166.903" fill="#148082" width="9.086" height="28.362"/>
				<rect x="662.768" y="166.903" fill="#148082" width="9.086" height="28.362"/>
				<rect x="679.175" y="166.903" fill="#148082" width="9.086" height="28.362"/>
				<rect x="695.581" y="166.903" fill="#148082" width="9.086" height="28.362"/>
				<rect x="711.988" y="166.903" fill="#148082" width="9.086" height="28.362"/>
				<rect x="728.395" y="166.903" fill="#148082" width="9.086" height="28.362"/>
				<rect x="744.801" y="166.903" fill="#148082" width="9.086" height="28.362"/>
				<rect x="761.208" y="166.903" fill="#148082" width="9.085" height="28.362"/>
				<rect x="777.615" y="166.903" fill="#148082" width="9.086" height="28.362"/>
				<rect x="794.022" y="166.903" fill="#148082" width="9.086" height="28.362"/>
				<rect x="810.429" y="166.903" fill="#148082" width="9.086" height="28.362"/>
				<rect x="826.835" y="166.903" fill="#148082" width="9.086" height="28.362"/>
				<rect x="843.242" y="166.903" fill="#148082" width="9.086" height="28.362"/>
				<rect x="859.648" y="166.903" fill="#148082" width="9.086" height="28.362"/>
				<rect x="876.055" y="166.903" fill="#148082" width="9.085" height="28.362"/>
				<rect x="892.462" y="166.903" fill="#148082" width="9.086" height="28.362"/>
				<rect x="908.869" y="166.903" fill="#148082" width="9.086" height="28.362"/>
				<rect x="925.276" y="166.903" fill="#148082" width="9.086" height="28.362"/>
			</g>
			<g>
				<rect x="629.955" y="214.173" fill="#148082" width="9.085" height="28.361"/>
				<rect x="646.361" y="214.173" fill="#148082" width="9.086" height="28.361"/>
				<rect x="662.768" y="214.173" fill="#148082" width="9.086" height="28.361"/>
				<rect x="679.175" y="214.173" fill="#148082" width="9.086" height="28.361"/>
				<rect x="695.581" y="214.173" fill="#148082" width="9.086" height="28.361"/>
				<rect x="711.988" y="214.173" fill="#148082" width="9.086" height="28.361"/>
				<rect x="728.395" y="214.173" fill="#148082" width="9.086" height="28.361"/>
				<rect x="744.801" y="214.173" fill="#148082" width="9.086" height="28.361"/>
				<rect x="761.208" y="214.173" fill="#148082" width="9.085" height="28.361"/>
				<rect x="777.615" y="214.173" fill="#148082" width="9.086" height="28.361"/>
				<rect x="794.022" y="214.173" fill="#148082" width="9.086" height="28.361"/>
				<rect x="810.429" y="214.173" fill="#148082" width="9.086" height="28.361"/>
				<rect x="826.835" y="214.173" fill="#148082" width="9.086" height="28.361"/>
				<rect x="843.242" y="214.173" fill="#148082" width="9.086" height="28.361"/>
				<rect x="859.648" y="214.173" fill="#148082" width="9.086" height="28.361"/>
				<rect x="876.055" y="214.173" fill="#148082" width="9.085" height="28.361"/>
				<rect x="892.462" y="214.173" fill="#148082" width="9.086" height="28.361"/>
				<rect x="908.869" y="214.173" fill="#148082" width="9.086" height="28.361"/>
				<rect x="925.276" y="214.173" fill="#148082" width="9.086" height="28.361"/>
			</g>
			<g>
				<rect x="629.955" y="261.441" fill="#148082" width="9.085" height="28.362"/>
				<rect x="646.361" y="261.441" fill="#148082" width="9.086" height="28.362"/>
				<rect x="662.768" y="261.441" fill="#148082" width="9.086" height="28.362"/>
				<rect x="679.175" y="261.441" fill="#148082" width="9.086" height="28.362"/>
				<rect x="695.581" y="261.441" fill="#148082" width="9.086" height="28.362"/>
				<rect x="711.988" y="261.441" fill="#148082" width="9.086" height="28.362"/>
				<rect x="728.395" y="261.441" fill="#148082" width="9.086" height="28.362"/>
				<rect x="744.801" y="261.441" fill="#148082" width="9.086" height="28.362"/>
				<rect x="761.208" y="261.441" fill="#148082" width="9.085" height="28.362"/>
				<rect x="777.615" y="261.441" fill="#148082" width="9.086" height="28.362"/>
				<rect x="794.022" y="261.441" fill="#148082" width="9.086" height="28.362"/>
				<rect x="810.429" y="261.441" fill="#148082" width="9.086" height="28.362"/>
				<rect x="826.835" y="261.441" fill="#148082" width="9.086" height="28.362"/>
				<rect x="843.242" y="261.441" fill="#148082" width="9.086" height="28.362"/>
				<rect x="859.648" y="261.441" fill="#148082" width="9.086" height="28.362"/>
				<rect x="876.055" y="261.441" fill="#148082" width="9.085" height="28.362"/>
				<rect x="892.462" y="261.441" fill="#148082" width="9.086" height="28.362"/>
				<rect x="908.869" y="261.441" fill="#148082" width="9.086" height="28.362"/>
				<rect x="925.276" y="261.441" fill="#148082" width="9.086" height="28.362"/>
			</g>
			<g>
				<rect x="629.955" y="308.711" fill="#148082" width="9.085" height="28.361"/>
				<rect x="646.361" y="308.711" fill="#148082" width="9.086" height="28.361"/>
				<rect x="662.768" y="308.711" fill="#148082" width="9.086" height="28.361"/>
				<rect x="679.175" y="308.711" fill="#148082" width="9.086" height="28.361"/>
				<rect x="695.581" y="308.711" fill="#148082" width="9.086" height="28.361"/>
				<rect x="711.988" y="308.711" fill="#148082" width="9.086" height="28.361"/>
				<rect x="728.395" y="308.711" fill="#148082" width="9.086" height="28.361"/>
				<rect x="744.801" y="308.711" fill="#148082" width="9.086" height="28.361"/>
				<rect x="761.208" y="308.711" fill="#148082" width="9.085" height="28.361"/>
				<rect x="777.615" y="308.711" fill="#148082" width="9.086" height="28.361"/>
				<rect x="794.022" y="308.711" fill="#148082" width="9.086" height="28.361"/>
				<rect x="810.429" y="308.711" fill="#148082" width="9.086" height="28.361"/>
				<rect x="826.835" y="308.711" fill="#148082" width="9.086" height="28.361"/>
				<rect x="843.242" y="308.711" fill="#148082" width="9.086" height="28.361"/>
				<rect x="859.648" y="308.711" fill="#148082" width="9.086" height="28.361"/>
				<rect x="876.055" y="308.711" fill="#148082" width="9.085" height="28.361"/>
				<rect x="892.462" y="308.711" fill="#148082" width="9.086" height="28.361"/>
				<rect x="908.869" y="308.711" fill="#148082" width="9.086" height="28.361"/>
				<rect x="925.276" y="308.711" fill="#148082" width="9.086" height="28.361"/>
			</g>
			<g>
				<rect x="629.955" y="355.979" fill="#148082" width="9.085" height="28.362"/>
				<rect x="646.361" y="355.979" fill="#148082" width="9.086" height="28.362"/>
				<rect x="662.768" y="355.979" fill="#148082" width="9.086" height="28.362"/>
				<rect x="679.175" y="355.979" fill="#148082" width="9.086" height="28.362"/>
				<rect x="695.581" y="355.979" fill="#148082" width="9.086" height="28.362"/>
				<rect x="711.988" y="355.979" fill="#148082" width="9.086" height="28.362"/>
				<rect x="728.395" y="355.979" fill="#148082" width="9.086" height="28.362"/>
				<rect x="744.801" y="355.979" fill="#148082" width="9.086" height="28.362"/>
				<rect x="761.208" y="355.979" fill="#148082" width="9.085" height="28.362"/>
				<rect x="777.615" y="355.979" fill="#148082" width="9.086" height="28.362"/>
				<rect x="794.022" y="355.979" fill="#148082" width="9.086" height="28.362"/>
				<rect x="810.429" y="355.979" fill="#148082" width="9.086" height="28.362"/>
				<rect x="826.835" y="355.979" fill="#148082" width="9.086" height="28.362"/>
				<rect x="843.242" y="355.979" fill="#148082" width="9.086" height="28.362"/>
				<rect x="859.648" y="355.979" fill="#148082" width="9.086" height="28.362"/>
				<rect x="876.055" y="355.979" fill="#148082" width="9.085" height="28.362"/>
				<rect x="892.462" y="355.979" fill="#148082" width="9.086" height="28.362"/>
				<rect x="908.869" y="355.979" fill="#148082" width="9.086" height="28.362"/>
				<rect x="925.276" y="355.979" fill="#148082" width="9.086" height="28.362"/>
			</g>
			<g>
				<rect x="629.955" y="403.248" fill="#148082" width="9.085" height="28.361"/>
				<rect x="646.361" y="403.248" fill="#148082" width="9.086" height="28.361"/>
				<rect x="662.768" y="403.248" fill="#148082" width="9.086" height="28.361"/>
				<rect x="679.175" y="403.248" fill="#148082" width="9.086" height="28.361"/>
				<rect x="695.581" y="403.248" fill="#148082" width="9.086" height="28.361"/>
				<rect x="711.988" y="403.248" fill="#148082" width="9.086" height="28.361"/>
				<rect x="728.395" y="403.248" fill="#148082" width="9.086" height="28.361"/>
				<rect x="744.801" y="403.248" fill="#148082" width="9.086" height="28.361"/>
				<rect x="761.208" y="403.248" fill="#148082" width="9.085" height="28.361"/>
				<rect x="777.615" y="403.248" fill="#148082" width="9.086" height="28.361"/>
				<rect x="794.022" y="403.248" fill="#148082" width="9.086" height="28.361"/>
				<rect x="810.429" y="403.248" fill="#148082" width="9.086" height="28.361"/>
				<rect x="826.835" y="403.248" fill="#148082" width="9.086" height="28.361"/>
				<rect x="843.242" y="403.248" fill="#148082" width="9.086" height="28.361"/>
				<rect x="859.648" y="403.248" fill="#148082" width="9.086" height="28.361"/>
				<rect x="876.055" y="403.248" fill="#148082" width="9.085" height="28.361"/>
				<rect x="892.462" y="403.248" fill="#148082" width="9.086" height="28.361"/>
				<rect x="908.869" y="403.248" fill="#148082" width="9.086" height="28.361"/>
				<rect x="925.276" y="403.248" fill="#148082" width="9.086" height="28.361"/>
			</g>
			<g>
				<rect x="629.955" y="450.517" fill="#148082" width="9.085" height="28.361"/>
				<rect x="646.361" y="450.517" fill="#148082" width="9.086" height="28.361"/>
				<rect x="662.768" y="450.517" fill="#148082" width="9.086" height="28.361"/>
				<rect x="679.175" y="450.517" fill="#148082" width="9.086" height="28.361"/>
				<rect x="695.581" y="450.517" fill="#148082" width="9.086" height="28.361"/>
				<rect x="711.988" y="450.517" fill="#148082" width="9.086" height="28.361"/>
				<rect x="728.395" y="450.517" fill="#148082" width="9.086" height="28.361"/>
				<rect x="744.801" y="450.517" fill="#148082" width="9.086" height="28.361"/>
				<rect x="761.208" y="450.517" fill="#148082" width="9.085" height="28.361"/>
				<rect x="777.615" y="450.517" fill="#148082" width="9.086" height="28.361"/>
				<rect x="794.022" y="450.517" fill="#148082" width="9.086" height="28.361"/>
				<rect x="810.429" y="450.517" fill="#148082" width="9.086" height="28.361"/>
				<rect x="826.835" y="450.517" fill="#148082" width="9.086" height="28.361"/>
				<rect x="843.242" y="450.517" fill="#148082" width="9.086" height="28.361"/>
				<rect x="859.648" y="450.517" fill="#148082" width="9.086" height="28.361"/>
				<rect x="876.055" y="450.517" fill="#148082" width="9.085" height="28.361"/>
				<rect x="892.462" y="450.517" fill="#148082" width="9.086" height="28.361"/>
				<rect x="908.869" y="450.517" fill="#148082" width="9.086" height="28.361"/>
				<rect x="925.276" y="450.517" fill="#148082" width="9.086" height="28.361"/>
			</g>
		</g>
		<g>
			<rect x="372.971" y="-48.166" fill="#D6E6DC" width="100.122" height="725.272"/>
			<g>
				<rect x="272.85" y="-48.166" fill="#148082" width="100.122" height="725.272"/>
			</g>
			<g>
				<g>
					<g>
						<rect x="248.864" y="-48.166" fill="#003631" width="49.364" height="725.272"/>
						<rect x="298.228" y="-48.166" fill="#148082" width="49.364" height="725.272"/>
						<rect x="398.35" y="-48.166" fill="#148082" width="49.364" height="725.272"/>
						<rect x="199.499" y="-48.166" fill="#148082" width="49.365" height="725.272"/>
						<rect x="447.715" y="-48.166" fill="#003631" width="49.364" height="725.272"/>
						<rect x="497.079" y="-48.166" fill="#148082" width="49.364" height="725.272"/>
					</g>
				</g>
				<g>
					<rect x="280.022" y="-5.978" fill="#D9A134" width="11.089" height="19.674"/>
					<rect x="226.016" y="-5.978" fill="#D9A134" width="16.891" height="19.674"/>
					<rect x="280.022" y="35.519" fill="#D9A134" width="11.089" height="19.674"/>
					<rect x="254.956" y="-5.978" fill="#D9A134" width="11.089" height="19.674"/>
					<rect x="254.956" y="35.519" fill="#D9A134" width="11.089" height="19.674"/>
					<rect x="479.851" y="-5.978" fill="#D9A134" width="11.089" height="19.674"/>
					<rect x="479.851" y="35.519" fill="#D9A134" width="11.089" height="19.674"/>
					<rect x="226.016" y="35.519" fill="#D9A134" width="16.891" height="19.674"/>
					<rect x="280.022" y="118.514" fill="#D9A134" width="11.089" height="19.673"/>
					<rect x="226.016" y="118.514" fill="#D9A134" width="16.891" height="19.673"/>
					<rect x="280.022" y="160.011" fill="#D9A134" width="11.089" height="19.674"/>
					<rect x="226.016" y="160.011" fill="#D9A134" width="16.891" height="19.674"/>
					<rect x="280.022" y="201.508" fill="#D9A134" width="11.089" height="19.673"/>
					<rect x="226.016" y="201.508" fill="#D9A134" width="16.891" height="19.673"/>
					<rect x="280.022" y="201.508" fill="#D9A134" width="11.089" height="19.673"/>
					<rect x="226.016" y="201.508" fill="#D9A134" width="16.891" height="19.673"/>
					<rect x="280.022" y="243.005" fill="#D9A134" width="11.089" height="19.674"/>
					<rect x="226.016" y="243.005" fill="#D9A134" width="16.891" height="19.674"/>
					<rect x="280.022" y="284.503" fill="#D9A134" width="11.089" height="19.673"/>
					<rect x="226.016" y="284.503" fill="#D9A134" width="16.891" height="19.673"/>
					<rect x="280.022" y="325.999" fill="#D9A134" width="11.089" height="19.674"/>
					<rect x="226.016" y="325.999" fill="#D9A134" width="16.891" height="19.674"/>
					<rect x="280.022" y="77.017" fill="#D9A134" width="11.089" height="19.674"/>
					<rect x="226.016" y="77.017" fill="#D9A134" width="16.891" height="19.674"/>
					<rect x="280.022" y="118.514" fill="#D9A134" width="11.089" height="19.673"/>
					<rect x="254.956" y="118.514" fill="#D9A134" width="11.089" height="19.673"/>
					<rect x="254.956" y="160.011" fill="#D9A134" width="11.089" height="19.674"/>
					<rect x="254.956" y="201.508" fill="#D9A134" width="11.089" height="19.673"/>
					<rect x="254.956" y="201.508" fill="#D9A134" width="11.089" height="19.673"/>
					<rect x="254.956" y="243.005" fill="#D9A134" width="11.089" height="19.674"/>
					<rect x="254.956" y="284.503" fill="#D9A134" width="11.089" height="19.673"/>
					<rect x="254.956" y="325.999" fill="#D9A134" width="11.089" height="19.674"/>
					<rect x="254.956" y="77.017" fill="#D9A134" width="11.089" height="19.674"/>
					<rect x="254.956" y="118.514" fill="#D9A134" width="11.089" height="19.673"/>
					<rect x="309.752" y="-5.978" fill="#D9A134" width="26.317" height="19.674"/>
					<rect x="309.752" y="35.519" fill="#D9A134" width="26.317" height="19.674"/>
					<rect x="309.752" y="118.514" fill="#D9A134" width="26.317" height="19.673"/>
					<rect x="309.752" y="160.011" fill="#D9A134" width="26.317" height="19.674"/>
					<rect x="309.752" y="201.508" fill="#D9A134" width="26.317" height="19.673"/>
					<rect x="309.752" y="201.508" fill="#D9A134" width="26.317" height="19.673"/>
					<rect x="309.752" y="243.005" fill="#D9A134" width="26.317" height="19.674"/>
					<rect x="309.752" y="284.503" fill="#D9A134" width="26.317" height="19.673"/>
					<rect x="309.752" y="325.999" fill="#D9A134" width="26.317" height="19.674"/>
					<rect x="309.752" y="77.017" fill="#D9A134" width="26.317" height="19.674"/>
					<rect x="309.752" y="118.514" fill="#D9A134" width="26.317" height="19.673"/>
					<rect x="226.016" y="118.514" fill="#D9A134" width="16.891" height="19.673"/>
				</g>
				<g>
					<rect x="454.785" y="-5.978" fill="#D9A134" width="11.088" height="19.674"/>
					<rect x="502.988" y="-5.978" fill="#D9A134" width="16.89" height="19.674"/>
					<rect x="454.785" y="35.519" fill="#D9A134" width="11.088" height="19.674"/>
					<rect x="502.988" y="35.519" fill="#D9A134" width="16.89" height="19.674"/>
					<rect x="454.785" y="118.514" fill="#D9A134" width="11.088" height="19.673"/>
					<rect x="502.988" y="118.514" fill="#D9A134" width="16.89" height="19.673"/>
					<rect x="454.785" y="160.011" fill="#D9A134" width="11.088" height="19.674"/>
					<rect x="502.988" y="160.011" fill="#D9A134" width="16.89" height="19.674"/>
					<rect x="454.785" y="201.508" fill="#D9A134" width="11.088" height="19.673"/>
					<rect x="502.988" y="201.508" fill="#D9A134" width="16.89" height="19.673"/>
					<rect x="454.785" y="201.508" fill="#D9A134" width="11.088" height="19.673"/>
					<rect x="502.988" y="201.508" fill="#D9A134" width="16.89" height="19.673"/>
					<rect x="454.785" y="243.005" fill="#D9A134" width="11.088" height="19.674"/>
					<rect x="502.988" y="243.005" fill="#D9A134" width="16.89" height="19.674"/>
					<rect x="454.785" y="284.503" fill="#D9A134" width="11.088" height="19.673"/>
					<rect x="502.988" y="284.503" fill="#D9A134" width="16.89" height="19.673"/>
					<rect x="454.785" y="325.999" fill="#D9A134" width="11.088" height="19.674"/>
					<rect x="502.988" y="325.999" fill="#D9A134" width="16.89" height="19.674"/>
					<rect x="454.785" y="77.017" fill="#D9A134" width="11.088" height="19.674"/>
					<rect x="502.988" y="77.017" fill="#D9A134" width="16.89" height="19.674"/>
					<rect x="454.785" y="118.514" fill="#D9A134" width="11.088" height="19.673"/>
					<rect x="479.851" y="118.514" fill="#D9A134" width="11.089" height="19.673"/>
					<rect x="479.851" y="160.011" fill="#D9A134" width="11.089" height="19.674"/>
					<rect x="479.851" y="201.508" fill="#D9A134" width="11.089" height="19.673"/>
					<rect x="479.851" y="201.508" fill="#D9A134" width="11.089" height="19.673"/>
					<rect x="479.851" y="243.005" fill="#D9A134" width="11.089" height="19.674"/>
					<rect x="479.851" y="284.503" fill="#D9A134" width="11.089" height="19.673"/>
					<rect x="479.851" y="325.999" fill="#D9A134" width="11.089" height="19.674"/>
					<rect x="479.851" y="77.017" fill="#D9A134" width="11.089" height="19.674"/>
					<rect x="479.851" y="118.514" fill="#D9A134" width="11.089" height="19.673"/>
					<rect x="409.826" y="-5.978" fill="#D9A134" width="26.318" height="19.674"/>
					<rect x="409.826" y="35.519" fill="#D9A134" width="26.318" height="19.674"/>
					<rect x="409.826" y="118.514" fill="#D9A134" width="26.318" height="19.673"/>
					<rect x="409.826" y="160.011" fill="#D9A134" width="26.318" height="19.674"/>
					<rect x="409.826" y="201.508" fill="#D9A134" width="26.318" height="19.673"/>
					<rect x="409.826" y="201.508" fill="#D9A134" width="26.318" height="19.673"/>
					<rect x="409.826" y="243.005" fill="#D9A134" width="26.318" height="19.674"/>
					<rect x="409.826" y="284.503" fill="#D9A134" width="26.318" height="19.673"/>
					<rect x="409.826" y="325.999" fill="#D9A134" width="26.318" height="19.674"/>
					<rect x="409.826" y="77.017" fill="#D9A134" width="26.318" height="19.674"/>
					<rect x="409.826" y="118.514" fill="#D9A134" width="26.318" height="19.673"/>
					<rect x="502.988" y="118.514" fill="#D9A134" width="16.89" height="19.673"/>
				</g>
				<g>
					<g>
						<rect x="280.022" y="326.184" fill="#D9A134" width="11.089" height="19.674"/>
						<rect x="226.016" y="326.184" fill="#D9A134" width="16.891" height="19.674"/>
						<rect x="280.022" y="409.179" fill="#D9A134" width="11.089" height="19.674"/>
						<rect x="226.016" y="409.179" fill="#D9A134" width="16.891" height="19.674"/>
						<rect x="280.022" y="450.676" fill="#D9A134" width="11.089" height="19.673"/>
						<rect x="226.016" y="450.676" fill="#D9A134" width="16.891" height="19.673"/>
						<rect x="280.022" y="492.173" fill="#D9A134" width="11.089" height="19.674"/>
						<rect x="226.016" y="492.173" fill="#D9A134" width="16.891" height="19.674"/>
						<rect x="280.022" y="492.173" fill="#D9A134" width="11.089" height="19.674"/>
						<rect x="226.016" y="492.173" fill="#D9A134" width="16.891" height="19.674"/>
						<rect x="280.022" y="533.67" fill="#D9A134" width="11.089" height="19.674"/>
						<rect x="226.016" y="533.67" fill="#D9A134" width="16.891" height="19.674"/>
						<rect x="280.022" y="575.167" fill="#D9A134" width="11.089" height="19.674"/>
						<rect x="226.016" y="575.167" fill="#D9A134" width="16.891" height="19.674"/>
						<rect x="280.022" y="616.665" fill="#D9A134" width="11.089" height="19.674"/>
						<rect x="226.016" y="616.665" fill="#D9A134" width="16.891" height="19.674"/>
						<rect x="280.022" y="367.682" fill="#D9A134" width="11.089" height="19.674"/>
						<rect x="226.016" y="367.682" fill="#D9A134" width="16.891" height="19.674"/>
						<rect x="280.022" y="409.179" fill="#D9A134" width="11.089" height="19.674"/>
						<rect x="254.956" y="409.179" fill="#D9A134" width="11.089" height="19.674"/>
						<rect x="254.956" y="450.676" fill="#D9A134" width="11.089" height="19.673"/>
						<rect x="254.956" y="492.173" fill="#D9A134" width="11.089" height="19.674"/>
						<rect x="254.956" y="492.173" fill="#D9A134" width="11.089" height="19.674"/>
						<rect x="254.956" y="533.67" fill="#D9A134" width="11.089" height="19.674"/>
						<rect x="254.956" y="575.167" fill="#D9A134" width="11.089" height="19.674"/>
						<rect x="254.956" y="616.665" fill="#D9A134" width="11.089" height="19.674"/>
						<rect x="254.956" y="367.682" fill="#D9A134" width="11.089" height="19.674"/>
						<rect x="254.956" y="409.179" fill="#D9A134" width="11.089" height="19.674"/>
						<rect x="309.752" y="326.184" fill="#D9A134" width="26.317" height="19.674"/>
						<rect x="309.752" y="409.179" fill="#D9A134" width="26.317" height="19.674"/>
						<rect x="309.752" y="450.676" fill="#D9A134" width="26.317" height="19.673"/>
						<rect x="309.752" y="492.173" fill="#D9A134" width="26.317" height="19.674"/>
						<rect x="309.752" y="492.173" fill="#D9A134" width="26.317" height="19.674"/>
						<rect x="309.752" y="533.67" fill="#D9A134" width="26.317" height="19.674"/>
						<rect x="309.752" y="575.167" fill="#D9A134" width="26.317" height="19.674"/>
						<rect x="309.752" y="616.665" fill="#D9A134" width="26.317" height="19.674"/>
						<rect x="309.752" y="367.682" fill="#D9A134" width="26.317" height="19.674"/>
						<rect x="309.752" y="409.179" fill="#D9A134" width="26.317" height="19.674"/>
						<rect x="226.016" y="409.179" fill="#D9A134" width="16.891" height="19.674"/>
					</g>
					<g>
						<rect x="454.785" y="326.184" fill="#D9A134" width="11.088" height="19.674"/>
						<rect x="502.988" y="326.184" fill="#D9A134" width="16.89" height="19.674"/>
						<rect x="454.785" y="409.179" fill="#D9A134" width="11.088" height="19.674"/>
						<rect x="502.988" y="409.179" fill="#D9A134" width="16.89" height="19.674"/>
						<rect x="454.785" y="450.676" fill="#D9A134" width="11.088" height="19.673"/>
						<rect x="502.988" y="450.676" fill="#D9A134" width="16.89" height="19.673"/>
						<rect x="454.785" y="492.173" fill="#D9A134" width="11.088" height="19.674"/>
						<rect x="502.988" y="492.173" fill="#D9A134" width="16.89" height="19.674"/>
						<rect x="454.785" y="492.173" fill="#D9A134" width="11.088" height="19.674"/>
						<rect x="502.988" y="492.173" fill="#D9A134" width="16.89" height="19.674"/>
						<rect x="454.785" y="533.67" fill="#D9A134" width="11.088" height="19.674"/>
						<rect x="502.988" y="533.67" fill="#D9A134" width="16.89" height="19.674"/>
						<rect x="454.785" y="575.167" fill="#D9A134" width="11.088" height="19.674"/>
						<rect x="502.988" y="575.167" fill="#D9A134" width="16.89" height="19.674"/>
						<rect x="454.785" y="616.665" fill="#D9A134" width="11.088" height="19.674"/>
						<rect x="502.988" y="616.665" fill="#D9A134" width="16.89" height="19.674"/>
						<rect x="454.785" y="367.682" fill="#D9A134" width="11.088" height="19.674"/>
						<rect x="502.988" y="367.682" fill="#D9A134" width="16.89" height="19.674"/>
						<rect x="454.785" y="409.179" fill="#D9A134" width="11.088" height="19.674"/>
						<rect x="479.851" y="409.179" fill="#D9A134" width="11.089" height="19.674"/>
						<rect x="479.851" y="450.676" fill="#D9A134" width="11.089" height="19.673"/>
						<rect x="479.851" y="492.173" fill="#D9A134" width="11.089" height="19.674"/>
						<rect x="479.851" y="492.173" fill="#D9A134" width="11.089" height="19.674"/>
						<rect x="479.851" y="533.67" fill="#D9A134" width="11.089" height="19.674"/>
						<rect x="479.851" y="575.167" fill="#D9A134" width="11.089" height="19.674"/>
						<rect x="479.851" y="616.665" fill="#D9A134" width="11.089" height="19.674"/>
						<rect x="479.851" y="367.682" fill="#D9A134" width="11.089" height="19.674"/>
						<rect x="479.851" y="409.179" fill="#D9A134" width="11.089" height="19.674"/>
						<rect x="409.826" y="326.184" fill="#D9A134" width="26.318" height="19.674"/>
						<rect x="409.826" y="409.179" fill="#D9A134" width="26.318" height="19.674"/>
						<rect x="409.826" y="450.676" fill="#D9A134" width="26.318" height="19.673"/>
						<rect x="409.826" y="492.173" fill="#D9A134" width="26.318" height="19.674"/>
						<rect x="409.826" y="492.173" fill="#D9A134" width="26.318" height="19.674"/>
						<rect x="409.826" y="533.67" fill="#D9A134" width="26.318" height="19.674"/>
						<rect x="409.826" y="575.167" fill="#D9A134" width="26.318" height="19.674"/>
						<rect x="409.826" y="616.665" fill="#D9A134" width="26.318" height="19.674"/>
						<rect x="409.826" y="367.682" fill="#D9A134" width="26.318" height="19.674"/>
						<rect x="409.826" y="409.179" fill="#D9A134" width="26.318" height="19.674"/>
						<rect x="502.988" y="409.179" fill="#D9A134" width="16.89" height="19.674"/>
					</g>
				</g>
			</g>
		</g>
	</g>
	<rect x="-48.414" y="662.353" fill="#595C5F" width="1710.919" height="457.009"/>
	<g>
		<polygon fill="#FFFF76" points="211.849,898.741 44.24,898.741 26.469,891.462 194.078,891.462 		"/>
		<polygon fill="#FFFF76" points="453.403,898.741 285.794,898.741 268.023,891.462 435.632,891.462 		"/>
		<polygon fill="#FFFF76" points="694.956,898.741 527.348,898.741 509.577,891.462 677.186,891.462 		"/>
		<polygon fill="#FFFF76" points="936.51,898.741 768.902,898.741 751.131,891.462 918.74,891.462 		"/>
		<polygon fill="#FFFF76" points="1178.064,898.741 1010.456,898.741 992.685,891.462 1160.294,891.462 		"/>
		<polygon fill="#FFFF76" points="1419.618,898.741 1252.01,898.741 1234.239,891.462 1401.847,891.462 		"/>
		<polygon fill="#FFFF76" points="1649.055,893.778 1643.401,891.462 1475.793,891.462 1493.563,898.741 1649.055,898.741 		"/>
	</g>
	<rect x="-40.21" y="-78.877" opacity="0.65" fill="#FFFFFF" width="1710.171" height="1197.12"/>
	<g>
		<ellipse opacity="0.51" cx="804.864" cy="951.362" rx="653" ry="12"/>
		<g>
			<g>
				<path fill="#474847" d="M920.504,844.607H662.629v-21.655h257.875c17.142,0,27.496-7.885,36.92-28.125l43.182-92.747
					c3.898-8.362,5.007-14.148,3.479-18.21c-1.614-4.299-6.714-8.367-15.153-12.103l-38.765-17.131l8.763-19.804l38.759,17.131
					c14.153,6.257,22.876,14.2,26.667,24.291c4.877,12.964-0.011,26.177-4.108,34.966l-43.2,92.749
					C968.927,821.413,954.23,844.607,920.504,844.607z"/>
			</g>
			<g>
				<polygon fill="#828281" points="1270.812,913.132 1265.529,914.018 1240.851,766.234 1246.129,765.359 				"/>
				<polygon fill="#828281" points="1246.911,912.773 1241.864,910.983 1291.956,769.771 1296.998,771.567 				"/>
				
					<rect x="1291.576" y="761.631" transform="matrix(0.7718 -0.6358 0.6358 0.7718 -236.5845 1013.8362)" fill="#828281" width="5.357" height="149.826"/>
				<polygon fill="#828281" points="1323.076,904.305 1317.804,905.275 1290.582,757.942 1295.848,756.968 				"/>
				<polygon fill="#828281" points="1397.06,838.367 1395.181,843.383 1254.863,790.865 1256.737,785.853 				"/>
				<polygon fill="#828281" points="1384.804,858.893 1380.727,862.372 1283.485,748.379 1287.556,744.908 				"/>
				
					<rect x="1339.78" y="704.863" transform="matrix(-0.1649 -0.9863 0.9863 -0.1649 794.7511 2232.4495)" fill="#828281" width="5.36" height="149.824"/>
				<polygon fill="#828281" points="1415.548,788.7 1413.752,793.75 1272.548,743.652 1274.341,738.605 				"/>
				<polygon fill="#828281" points="1395.435,691.648 1398.845,695.792 1283.202,791.05 1279.798,786.919 				"/>
				
					<rect x="1331.226" y="653.868" transform="matrix(-0.1817 -0.9833 0.9833 -0.1817 859.6848 2172.9211)" fill="#828281" width="5.352" height="149.829"/>
				<polygon fill="#828281" points="1341.139,638.548 1346.157,640.428 1293.646,780.748 1288.633,778.865 				"/>
				<polygon fill="#828281" points="1361.665,650.807 1365.145,654.887 1251.165,752.126 1247.683,748.055 				"/>
				<polygon fill="#828281" points="1267.562,619.702 1272.849,618.819 1297.532,766.597 1292.248,767.475 				"/>
				<polygon fill="#828281" points="1291.472,620.061 1296.525,621.851 1246.43,763.058 1241.383,761.268 				"/>
				
					<rect x="1241.447" y="621.375" transform="matrix(-0.7718 0.6359 -0.6359 -0.7718 2647.0796 442.5463)" fill="#828281" width="5.357" height="149.827"/>
				<polygon fill="#828281" points="1215.31,628.526 1220.579,627.553 1247.795,774.887 1242.528,775.865 				"/>
				<polygon fill="#828281" points="1141.314,694.47 1143.197,689.454 1283.517,741.963 1281.637,746.981 				"/>
				<polygon fill="#828281" points="1153.582,673.946 1157.656,670.467 1254.904,784.45 1250.824,787.923 				"/>
				
					<rect x="1193.242" y="678.144" transform="matrix(0.1649 0.9863 -0.9863 0.1649 1741.4591 -550.6705)" fill="#828281" width="5.357" height="149.829"/>
				<polygon fill="#828281" points="1122.838,744.137 1124.622,739.09 1265.829,789.18 1264.039,794.235 				"/>
				<polygon fill="#828281" points="1142.939,841.182 1139.541,837.051 1255.175,741.781 1258.585,745.921 				"/>
				<polygon fill="#828281" points="1131.306,820.299 1130.328,815.03 1277.661,787.81 1278.641,793.08 				"/>
				<polygon fill="#828281" points="1197.244,894.292 1192.223,892.418 1244.738,752.089 1249.756,753.971 				"/>
				<polygon fill="#828281" points="1176.715,882.026 1173.239,877.953 1287.221,780.708 1290.706,784.785 				"/>
			</g>
			<g>
				
					<rect x="312.942" y="780.237" transform="matrix(0.9863 -0.1652 0.1652 0.9863 -134.8347 63.645)" fill="#828281" width="4.438" height="124.186"/>
				<polygon fill="#828281" points="307.766,902.914 303.574,901.426 345.099,784.381 349.283,785.864 				"/>
				<polygon fill="#828281" points="388.202,886.242 384.774,889.071 305.812,793.21 309.239,790.394 				"/>
				
					<rect x="355.209" y="773.139" transform="matrix(0.9834 -0.1814 0.1814 0.9834 -145.5436 78.6694)" fill="#828281" width="4.439" height="124.19"/>
				<polygon fill="#828281" points="432.224,841.238 430.665,845.398 314.352,801.872 315.917,797.705 				"/>
				<polygon fill="#828281" points="422.058,858.252 418.674,861.131 338.08,766.652 341.45,763.768 				"/>
				<polygon fill="#828281" points="447.839,780.252 448.569,784.631 326.084,805.094 325.347,800.711 				"/>
				
					<rect x="386.058" y="719.303" transform="matrix(0.3342 -0.9425 0.9425 0.3342 -477.9574 886.2043)" fill="#828281" width="4.439" height="124.196"/>
				<polygon fill="#828281" points="430.87,719.63 433.703,723.054 337.849,802.022 335.022,798.592 				"/>
				
					<rect x="377.648" y="688.308" transform="matrix(-0.1822 -0.9833 0.9833 -0.1822 -288.7512 1260.6462)" fill="#828281" width="4.437" height="124.186"/>
				<polygon fill="#828281" points="385.869,675.606 390.032,677.16 346.503,793.478 342.339,791.917 				"/>
				<polygon fill="#828281" points="402.883,685.773 405.768,689.151 311.289,769.753 308.402,766.378 				"/>
				<polygon fill="#828281" points="324.883,659.986 329.262,659.262 349.725,781.75 345.348,782.484 				"/>
				
					<rect x="323.811" y="657.46" transform="matrix(-0.9425 -0.3342 0.3342 -0.9425 392.8542 1506.6919)" fill="#828281" width="4.442" height="124.187"/>
				<polygon fill="#828281" points="264.26,676.956 267.688,674.134 346.656,769.982 343.217,772.805 				"/>
				
					<rect x="292.817" y="665.863" transform="matrix(-0.9834 0.1817 -0.1817 -0.9834 717.4092 1390.21)" fill="#828281" width="4.434" height="124.198"/>
				<polygon fill="#828281" points="220.238,721.959 221.797,717.808 338.109,761.331 336.55,765.489 				"/>
				<polygon fill="#828281" points="230.409,704.95 233.782,702.066 314.387,796.542 311.012,799.426 				"/>
				
					<rect x="263.282" y="708.435" transform="matrix(0.1645 0.9864 -0.9864 0.1645 981.8559 381.8822)" fill="#828281" width="4.444" height="124.188"/>
				<polygon fill="#828281" points="204.924,763.133 206.402,758.946 323.445,800.46 321.96,804.652 				"/>
				<polygon fill="#828281" points="221.586,843.573 218.765,840.146 314.618,761.178 317.439,764.611 				"/>
				<polygon fill="#828281" points="211.939,826.264 211.125,821.898 333.256,799.331 334.064,803.697 				"/>
				<polygon fill="#828281" points="266.594,887.596 262.435,886.028 305.959,769.721 310.117,771.281 				"/>
				<polygon fill="#828281" points="249.584,877.427 246.694,874.049 341.173,793.447 344.063,796.822 				"/>
			</g>
			<polygon fill="#646463" points="199.977,596.29 164.452,623.274 143.568,613.645 143.568,562.785 211.443,562.785 
				245.828,571.698 			"/>
			<polygon fill="#902C19" points="134.655,607.532 143.568,613.645 143.568,562.785 134.655,568.9 			"/>
			<path fill="#000100" d="M933.294,749.47c10.296-22.114,51.227-110.006,78.879-169.364L989.84,507.9l-30.236-0.638l13.131-84.05
				l41.398-25.668l54.036,84.578l-33.481,36.856v61.128c-28.224,60.608-70.021,150.345-80.528,172.921L933.294,749.47z"/>
			<path fill="#2C2A2B" d="M502.351,659.619l84.65,152.73l75.628,21.427c0,0,192.483-7.643,230.982-7.643
				c21.167,0,29.941-8.913,47.652-46.004c4.577-9.577,6.055-12.415,12.897-27.103C970.758,717.38,731.194,594.82,731.194,594.82
				l-16.868-28.634L502.351,659.619z"/>
			<polygon fill="#5B5C5B" points="820.464,743.507 845.188,715.726 836.552,689.636 800.414,698.916 			"/>
			<g>
				<path fill="#5B5C5B" d="M920.504,844.607H662.629v-21.655h257.875c17.142,0,27.496-7.885,36.92-28.125l43.182-92.747
					c3.898-8.362,5.007-14.148,3.479-18.21c-1.614-4.299,16.481-17.708,20.272-7.617c4.877,12.964-0.011,26.177-4.108,34.966
					l-43.2,92.749C968.927,821.413,954.23,844.607,920.504,844.607z"/>
			</g>
			<g>
				<path fill="#000100" d="M328.31,591.993c56.144,0,106.877,21.338,142.714,57.088c15.491,15.456,32.676,18.406,50.075,18.406
					c8.01,0,20.471,0,20.471,0c-1.138-2.021,25.223-7.83,24.029-9.811c-41.984-69.449-147.715-109.992-237.288-109.992
					c-116.278,0-213.425,74.768-236.982,182.144c-1.007,4.613-2.015,14.012,10.47,14.012c6.072,0,12.011,0,18.594,0
					c10.196,0,15.797-8.63,19.489-19.966C165.416,645.547,239.713,591.993,328.31,591.993z"/>
			</g>
			<path fill="#50504D" d="M389.945,781.6c0,35.191-28.524,63.714-63.714,63.714c-35.185,0-63.714-28.524-63.714-63.714
				c0-35.187,28.53-63.717,63.714-63.717C361.421,717.883,389.945,746.412,389.945,781.6z"/>
			<polygon fill="#2C2A2B" points="1041.037,389.849 1072.558,371.512 1103.12,381.45 1068.169,424.996 			"/>
			<path fill="#757573" d="M1269.193,610.804c-85.947,0-155.609,69.668-155.609,155.615c0,85.938,69.662,155.611,155.609,155.611
				c85.944,0,155.618-69.673,155.618-155.611C1424.811,680.472,1355.137,610.804,1269.193,610.804z M1269.193,904.703
				c-76.369,0-138.287-61.913-138.287-138.284c0-76.373,61.919-138.28,138.287-138.28c76.375,0,138.28,61.907,138.28,138.28
				C1407.472,842.791,1345.568,904.703,1269.193,904.703z"/>
			<path fill="#37373D" d="M1269.193,577.049c-104.581,0-189.367,84.785-189.367,189.37c0,104.572,84.786,189.361,189.367,189.361
				c104.584,0,189.37-84.789,189.37-189.361C1458.563,661.834,1373.777,577.049,1269.193,577.049z M1269.193,916.18
				c-82.724,0-149.765-67.044-149.765-149.762c0-82.719,67.041-149.774,149.765-149.774c82.719,0,149.771,67.055,149.771,149.774
				C1418.964,849.137,1351.912,916.18,1269.193,916.18z"/>
			<rect x="841.371" y="656.721" fill="#5B5C5B" width="33.674" height="29.292"/>
			<g>
				<path fill="#1F1F23" d="M1119.428,766.419c0-53.953,28.521-101.236,71.311-127.6l-24.031-31.66
					c-52.269,33.704-86.882,92.441-86.882,159.259c0,60.624,28.5,114.6,72.836,149.262l28.264-28.258
					C1143.649,860.175,1119.428,816.129,1119.428,766.419z"/>
			</g>
			<g>
				<path fill="#89533F" d="M1100.912,766.419c0-92.952,75.339-168.273,168.281-168.273c6.225,0,19.351,0,24.447,0
					c6.314,0,14.127-2.503,20.913-7.369c6.28-4.498,12.8-9.086,17.191-13.728c6.099-6.433,0.673-12.933-4.299-14.35
					c-18.505-5.278-38.046-8.114-58.252-8.114c-39.285,0-76.081,10.701-107.619,29.339
					c-62.372,36.85-104.212,104.783-104.212,182.496c0,5.104,0,30.559,0,30.559s5.642,0,18.641,0
					C1095.287,796.977,1100.912,785.83,1100.912,766.419z"/>
			</g>
			<g>
				<path fill="#733D29" d="M1100.912,766.419c0-92.952,75.339-168.273,168.281-168.273c6.225,0,19.351,0,24.447,0
					c6.314,0,14.127-2.503,20.913-7.369c6.28-4.498,12.8-9.086,17.191-13.728c6.099-6.433,0.673-12.933-4.299-14.35
					c-12.45,9.973-9.658,14.35-58.252,14.35c-37.457,0-62.972,7.59-93.503,24.637c-1.49,0.834-12.646-18.635-14.116-17.763
					c-62.372,36.85-104.212,104.783-104.212,182.496c0,5.104,0,30.559,0,30.559s5.642,0,18.641,0
					C1095.287,796.977,1100.912,785.83,1100.912,766.419z"/>
			</g>
			<path fill="#757573" d="M326.231,638.458c-79.049,0-143.144,64.087-143.144,143.141c0,79.046,64.095,143.127,143.144,143.127
				c79.049,0,143.144-64.081,143.144-143.127C469.375,702.545,405.28,638.458,326.231,638.458z M326.231,893.038
				c-61.54,0-111.43-49.898-111.43-111.439c0-61.534,49.89-111.427,111.43-111.427c61.546,0,111.425,49.893,111.425,111.427
				C437.655,843.14,387.777,893.038,326.231,893.038z"/>
			<path fill="#1F1F23" d="M326.231,607.414c-96.194,0-174.183,77.986-174.183,174.186c0,96.191,77.989,174.18,174.183,174.18
				c96.2,0,174.189-77.989,174.189-174.18C500.419,685.4,422.43,607.414,326.231,607.414z M326.231,911.344
				c-71.663,0-129.747-58.078-129.747-129.745c0-71.66,58.084-129.75,129.747-129.75c71.663,0,129.759,58.09,129.759,129.75
				C455.99,853.266,397.894,911.344,326.231,911.344z"/>
			<path fill="#757573" d="M1349.602,766.419c0,44.409-36.001,80.408-80.409,80.408c-44.412,0-80.406-35.999-80.406-80.408
				c0-44.413,35.994-80.406,80.406-80.406C1313.6,686.013,1349.602,722.006,1349.602,766.419z"/>
			<g>
				<path fill="#50504D" d="M1233.062,694.588c-26.258,13.223-44.275,40.414-44.275,71.831c0,30.626,17.122,57.249,42.311,70.831
					l62.666-62.678L1233.062,694.588z"/>
			</g>
			<polygon fill="#484647" points="1286.095,762.564 1258.585,780.13 983.248,349.193 1010.752,331.621 			"/>
			
				<rect x="1119.63" y="304.576" transform="matrix(0.8427 -0.5384 0.5384 0.8427 -124.2404 695.2988)" fill="#2C2A2B" width="16.319" height="511.389"/>
			<path fill="#2C2A2B" d="M977.938,460.401c0,0,6.311-3.722,9.84-5.94c3.534-2.208,7.351-1.343,9.664,2.327
				c0.926,1.487,3.271,5.209,5.725,9.121c3.598,5.714,6.661,15.82,7.753,33.013c1.083,17.195,1.253,81.183,1.253,81.183
				s-3.817-1.187-5.223-7.227c-1.403-6.049-8.683-28.472-21.058-46.642c-10.905-15.979-26.289-18.975-26.289-18.975L977.938,460.401
				z"/>
			<g>
				<path fill="#484647" d="M1142.209,299.69c-48.258,0-97.257,20.459-100.972,45.079c-3.698,24.447,46.982,45.08,91.043,45.08
					c2.714,0,5.211-0.135,7.544-0.37c1.371-47.257,5.671-64.014,18.557-87.535C1154.353,300.487,1149.104,299.69,1142.209,299.69z"
					/>
			</g>
			<path fill="#89533F" d="M673.329,565.589c0,0,52.714-85.577,112.32-129.892c59.597-44.321,104.676-54.247,141.354-54.247
				c36.674,0,56.245,33.611,56.245,63.414c0,29.794-5.483,49.021-15.401,62.502c-7.415,10.083-22.585,11.517-41.797,14.096
				c-58.453,7.836-105.517,22.371-159.506,44.894c-35.984,14.997-72.587,31.331-72.587,31.331L673.329,565.589z"/>
			<path fill="#733D29" d="M719.746,532.546c14.977-19.247,38.707-42.323,63.914-61.07c50.843-37.803,98.772-53.883,140.985-53.883
				c32.326,0,39.934,15.754,43.339,32.78c3.115,15.611,3.393,36.45-5.188,48.12c-5.064,6.866-17.532,8.518-33.317,10.602
				l-3.355,0.447c-54.992,7.363-101.76,20.521-161.426,45.409c-8.059,3.364-16.164,6.794-23.907,10.106
				C722.486,572.887,705.603,550.716,719.746,532.546z"/>
			<polygon fill="#5B5C5B" points="895.944,743.507 871.226,715.726 879.865,689.636 916.002,698.916 			"/>
			<path fill="#000100" d="M535.576,667.487c0,0,49.425,89.163,55.341,99.832c5.913,10.669,14.136,13.778,25.504,13.778
				c5.579,0,16.709,0,26.604,0c10.294,0,20.636-6.782,22.787-17.234c4.022-19.519,10.706-51.853,15.923-76.791
				c4.169-19.899,15.508-41.401,20.503-55.009c2.908-7.923,3.139-15.002,0.251-19.908c-8.532-14.469-8.532-14.469-8.532-14.469
				L535.576,667.487z"/>
			<path fill="#828281" d="M616.42,768.87c-9.124,0-11.944-2.304-14.812-7.478l87.33-148.146l3.015,5.117
				c0.367,0.623,0.936,3.696-1.19,9.485c-1.432,3.9-3.568,8.821-5.83,14.035c-5.365,12.36-12.04,27.75-15.167,42.691
				c-5.365,25.617-12.274,59.127-15.93,76.82c-0.944,4.62-6.355,7.476-10.813,7.476H616.42z"/>
			<path fill="#474847" d="M857.855,705.415c21.037,0,38.089,17.05,38.089,38.092c0,13.66-6.762,27.112-17.982,32.364
				c-6.277,2.936-82.624,38.416-89.51,41.603c-9.358,4.332-19.44,4.851-26.491,4.851c-34.596,0-62.658-22.169-62.658-59.352
				c0-34.598,12.987-57.558,40.503-57.558H857.855z"/>
			<path fill="#70706F" d="M761.961,799.397c-18.329,0-39.735-9.54-39.735-36.424c0-17.3,3.823-25.639,6.113-29.069
				c2.214-3.343,5.012-5.567,11.468-5.567h118.048c8.359,0,15.167,6.803,15.167,15.17c0,6.029-2.826,10.687-4.778,11.596
				c-5.8,2.719-81.852,38.07-89.409,41.569C773.548,799.117,766.679,799.397,761.961,799.397z"/>
			<path fill="#828281" d="M761.961,793.282c-5.613,0-33.617-1.458-33.617-30.308c0-16.281,3.552-23.39,5.082-25.688
				c1.057-1.586,1.88-2.839,6.381-2.839h118.048c4.995,0,9.057,4.065,9.057,9.06c0,3.202-1.169,5.53-1.758,6.292
				c-8.624,4.03-81.388,37.853-88.898,41.323C771.59,793.282,764.346,793.282,761.961,793.282z"/>
			<path fill="#828281" d="M875.045,743.848c0,9.904-8.032,17.936-17.944,17.936c-9.918,0-17.945-8.032-17.945-17.936
				c0-9.918,8.027-17.959,17.945-17.959C867.013,725.889,875.045,733.93,875.045,743.848z"/>
			<polygon fill="#5B5C5B" points="937.746,682.484 879.865,656.721 909.364,590.459 967.246,616.215 			"/>
			<polygon fill="#474847" points="937.746,682.484 879.865,656.721 879.865,689.636 916.002,698.916 			"/>
			<polygon fill="#474847" points="969.409,597.199 923.553,577.049 909.364,590.459 967.246,616.215 			"/>
			<polygon fill="#5B5C5B" points="778.676,682.484 836.552,656.721 807.052,590.459 749.182,616.215 			"/>
			<polygon fill="#474847" points="778.676,682.484 836.552,656.721 836.552,689.636 800.414,698.916 			"/>
			<polygon fill="#474847" points="747.002,597.199 792.87,577.049 807.052,590.459 749.182,616.215 			"/>
			<path fill="#828281" d="M898.765,648.862c-3.182,7.775-12.653,14.142-21.058,14.142h-38.999c-8.405,0-17.881-6.367-21.06-14.142
				l-26.653-65.303c-3.179-7.787,0.447-17.079,8.053-20.661c0,0,18.64-8.775,59.161-8.775c40.529,0,59.164,8.775,59.164,8.775
				c7.6,3.583,11.226,12.874,8.041,20.661L898.765,648.862z"/>
			<path fill="#70706F" d="M838.709,650.787c-3.439,0-8.44-3.37-9.742-6.546l-26.656-65.308c-0.713-1.75,0.234-4.167,1.943-4.972
				c0.073-0.032,17.362-7.606,53.956-7.606c36.585,0,53.877,7.574,54.048,7.652c1.614,0.759,2.561,3.176,1.842,4.926l-26.656,65.308
				c-1.296,3.176-6.3,6.546-9.736,6.546H838.709z"/>
			<rect x="278.908" y="799.397" fill="#828281" width="293.911" height="61.411"/>
			<rect x="278.908" y="828.04" fill="#5B5C5B" width="293.911" height="33.002"/>
			<polygon fill="#464746" points="664.159,844.607 572.819,860.808 572.819,799.397 664.159,822.952 			"/>
			<polygon fill="#464746" points="264.295,855.417 278.908,860.808 278.908,799.397 264.295,804.785 			"/>
			<g>
				<path fill="#60605E" d="M134.655,664.263c0-9.88-17.015-17.881-30.718-17.881v35.768
					C117.64,682.15,134.655,674.146,134.655,664.263z"/>
				<path fill="#CFA400" d="M103.936,682.052v-35.67c-10.008,0-10.919,2.289-10.919,17.832
					C93.017,679.756,93.929,682.052,103.936,682.052z"/>
				<g>
					<path fill="#757573" d="M103.936,646.382v17.881h30.718C134.655,654.382,117.64,646.382,103.936,646.382z"/>
				</g>
			</g>
			<polygon fill="#646463" points="354.902,771.5 332.19,752.467 448.564,613.645 471.278,632.681 			"/>
			<polygon fill="#3E3E41" points="331.821,790.508 317.508,778.51 412.743,664.898 427.059,676.903 			"/>
			
				<rect x="371.192" y="656.582" transform="matrix(0.7664 0.6424 -0.6424 0.7664 557.2327 -70.7355)" fill="#1F1F23" width="9.34" height="148.246"/>
			<polygon fill="#828281" points="434.71,683.316 405.092,658.485 453.573,600.661 483.194,625.486 			"/>
			<polygon fill="#646463" points="489.335,602.826 474.806,590.645 461.117,606.984 475.644,619.157 			"/>
			<g>
				<path fill="#484647" d="M995.576,346.346c-2.939,0-5.818-1.504-7.438-4.21l-8.281-13.793
					c-4.377-7.293-10.885-19.169-16.867-37.991c-3.47-10.932-11.526-37.082-17.67-57.1c-1.23-3.987-2.997-5.815-4.245-6.191
					c-1.473-0.453-3.866,0.532-6.404,2.605c-10.553,8.613-68.588,54.957-71.057,56.923c-3.739,2.986-9.193,2.377-12.173-1.362
					c-2.997-3.742-2.385-9.19,1.354-12.173c0.612-0.485,60.443-48.259,70.915-56.811c7.233-5.905,15.19-7.952,22.394-5.769
					c7.354,2.228,12.955,8.515,15.776,17.693c6.133,19.98,14.171,46.067,17.627,56.94c5.362,16.902,10.943,27.213,15.208,34.313
					l8.281,13.802c2.457,4.103,1.132,9.418-2.968,11.887C998.637,345.944,997.096,346.346,995.576,346.346z"/>
			</g>
			<g>
				<g>
					<polygon fill="#2C2A2B" points="912.11,250.458 865.206,288.331 851.843,271.371 898.753,233.498 					"/>
				</g>
				<g>
					<path fill="#1F1F23" d="M863.508,275.942c3.681,4.672,4.446,10.229,1.698,12.389c-2.752,2.168-7.969,0.124-11.656-4.553
						c-3.687-4.689-4.453-10.245-1.706-12.407C854.592,269.212,859.815,271.247,863.508,275.942z"/>
					<path fill="#2C2A2B" d="M910.407,238.06c3.687,4.677,4.452,10.236,1.704,12.398c-2.751,2.168-7.975,0.121-11.656-4.556
						c-3.687-4.689-4.458-10.242-1.701-12.404C901.497,231.333,906.72,233.377,910.407,238.06z"/>
				</g>
			</g>
			<path fill="#757573" d="M902.409,148.412c1.031,8.338-4.951,15.99-13.287,17.009l-7.36,0.892
				c-8.342,1.025-16.302-4.935-17.682-13.224l-4.657-27.923c-1.378-8.289,4.375-15.078,12.773-15.078h10.189
				c8.4,0,16.12,6.829,17.163,15.17L902.409,148.412z"/>
			<g>
				<path fill="#484647" d="M920.085,228.584c-1.981,0-3.635-1.487-3.851-3.462c-0.049-0.456-6.15-56.461-7.883-70.389
					c-1.323-10.521-3.133-12.161-13.885-12.514c-1.043-0.032-1.998-0.471-2.712-1.227c-0.704-0.754-1.077-1.744-1.042-2.778
					c0.067-2.108,1.768-3.757,3.875-3.757c13.53,0.439,19.46,3.216,21.468,19.313c1.461,11.729,5.927,52.428,7.781,69.376
					l0.118,1.135c0.234,2.131-1.308,4.048-3.438,4.285C920.374,228.578,920.227,228.584,920.085,228.584z"/>
			</g>
			<polygon fill="#2C2A2B" points="1293.764,774.573 1266.26,792.147 1244.157,757.554 1271.67,739.98 			"/>
			<path fill="#828281" d="M1280.835,766.419c0,6.43-5.218,11.644-11.642,11.644c-6.433,0-11.644-5.214-11.644-11.644
				c0-6.43,5.211-11.642,11.644-11.642C1275.617,754.777,1280.835,759.989,1280.835,766.419z"/>
			<polygon fill="#757573" points="1024.046,344.637 989.462,366.745 978.048,348.875 1012.638,326.77 			"/>
			<polygon fill="#757573" points="1050.791,386.488 1016.2,408.594 1004.793,390.727 1039.383,368.631 			"/>
			<polygon fill="#757573" points="1104.844,471.092 1070.254,493.195 1058.841,475.325 1093.431,453.223 			"/>
			<g>
				<path fill="#60605E" d="M1052.928,430.243c0,9.878,17.021,17.893,30.715,17.893v-35.782
					C1069.948,412.353,1052.928,420.368,1052.928,430.243z"/>
				<path fill="#CFA400" d="M1083.643,412.454v35.681c10.008,0,10.914-2.299,10.914-17.841
					C1094.556,414.75,1093.65,412.454,1083.643,412.454z"/>
				<g>
					<path fill="#757573" d="M1083.643,412.353c-13.694,0-30.715,8.015-30.715,17.89h30.715V412.353z"/>
				</g>
			</g>
			<g>
				<path fill="#757573" d="M1142.209,299.69c-48.258,0-97.257,20.459-100.972,45.079c18.936-11.794,63.992-12.046,93.763-8.465
					c2.743-12.742,7.097-24.496,13.758-36.329C1146.759,299.791,1144.582,299.69,1142.209,299.69z"/>
			</g>
			<circle fill="#1F1F23" cx="326.234" cy="781.6" r="12.52"/>
			<path fill="#2C2A2B" d="M693.956,597.687c0,0-115.435,50.872-130.088,57.331c-14.659,6.459-33.112,4.882-42.553-6.491
				c-17.592-21.201-51.232-55.566-99.627-78.613c-3.641-1.577-5.284-2.221-9.889-4.072c11.131-23.782,30.262-40.751,30.262-40.751
				s55.526,50.797,75.396,61.058c19.87,10.253,100.859,12.294,114.104,6.179c13.241-6.109,41.768-26.739,41.768-26.739
				L693.956,597.687z"/>
			<path fill="#4A4849" d="M426.117,560.177c-2.434,5.359-8.876,7.908-14.318,5.665c0,0-18.216-7.513-56.138-7.513
				c-44.832,0-62.323,0-62.323,0c-5.884,0-11.962-4.651-13.498-10.328l-5.619-20.739c-1.539-5.676,2.013-10.325,7.903-10.325
				h105.433c5.879,0,15.32-1.363,20.956-3.023c0,0,5.111-1.467,8.905-2.639c5.827-1.799,9.641,0.052,12.681,2.91
				c4.187,3.918,11.962,10.905,11.962,10.905s-1.992,4.386-4.424,9.739L426.117,560.177z"/>
		</g>
	</g>
	<g opacity="0.76">
		<g>
			<path d="M785.82,1020.234l-1.331-2.882c-0.656-1.383-2.393-2.026-3.858-1.432c-1.583,0.542-2.288,2.176-1.634,3.514l1.495,3.241
				l11.828,25.662c0.112,0.101,0.219,0.297,0.269,0.396c0,0.049,0.06,0.049,0.06,0.049c0.054,0.099,0.163,0.198,0.271,0.299
				c0,0.097,0.054,0.097,0.054,0.146c0.161,0.101,0.271,0.148,0.376,0.249c0.056,0,0.056,0,0.056,0
				c0.166,0.099,0.383,0.245,0.492,0.295c0.054,0,0.054,0,0.054,0s0.056,0,0.056,0.052c0.107,0,0.325,0.049,0.434,0.095
				c0.049,0,0.107,0,0.107,0c0.161,0.054,0.381,0.054,0.548,0.054c0.161,0,0.325,0,0.542-0.054c0.052,0,0.105,0,0.105,0
				c0.163-0.045,0.271-0.095,0.437-0.095c0.056-0.052,0.056-0.052,0.107-0.052c0.166-0.049,0.329-0.196,0.437-0.247
				c0.108-0.047,0.108-0.047,0.108-0.047c0.11-0.101,0.217-0.148,0.325-0.249c0.058-0.049,0.058-0.049,0.11-0.146
				c0.056-0.101,0.217-0.2,0.271-0.299c0.054,0,0.054,0,0.054-0.049c0.11-0.099,0.17-0.295,0.224-0.396l0.505-1.09l-3.224-6.978
				L785.82,1020.234z M901.176,1020.027c0.923-1.239,0.708-2.918-0.65-3.763c-1.359-0.938-3.157-0.69-4.187,0.596l-6.198,7.731
				l3.69,4.514L901.176,1020.027z M809.612,1015.92c-1.467-0.594-3.26,0.049-3.914,1.432l-7.875,17.021l3.232,6.989l10.189-21.929
				C811.842,1018.096,811.136,1016.462,809.612,1015.92z M739.419,1005.457c-1.28-1.277-2.981-1.981-4.787-1.981
				c-1.809,0-3.505,0.703-4.784,1.981l-21.911,21.914c-2.634,2.641-2.634,6.927,0,9.563l21.911,21.914
				c1.278,1.277,2.975,1.978,4.784,1.978c1.806,0,3.507-0.701,4.787-1.976l21.907-21.916c1.282-1.282,1.985-2.972,1.985-4.785
				c0-1.8-0.703-3.501-1.985-4.778L739.419,1005.457z M757.926,1034.117l-21.329,21.329c-1.052,1.049-2.88,1.049-3.925,0
				l-21.331-21.329c-1.081-1.084-1.081-2.845-0.004-3.929l21.335-21.329c0.017-0.019,0.037-0.037,0.056-0.05v17.675
				c-0.868,0.292-1.668,0.757-2.337,1.428c-1.132,1.131-1.754,2.636-1.754,4.236c0,1.604,0.622,3.114,1.754,4.239
				c1.132,1.138,2.64,1.761,4.238,1.761c1.603,0,3.112-0.619,4.245-1.761c2.335-2.333,2.335-6.138,0-8.482
				c-0.668-0.667-1.469-1.129-2.338-1.422v-17.675c0.017,0.013,0.041,0.03,0.06,0.05l21.329,21.329
				c0.525,0.525,0.809,1.221,0.809,1.961C758.735,1032.891,758.451,1033.584,757.926,1034.117z M890.849,1032.795l-3.649-4.553
				l-9.183-11.383c-0.931-1.286-2.832-1.533-4.14-0.596c-1.359,0.845-1.628,2.525-0.705,3.763l10.331,12.768l-10.331,12.869
				c-0.923,1.187-0.654,2.923,0.705,3.761c0.49,0.346,1.09,0.546,1.74,0.546c0.927,0,1.794-0.447,2.4-1.142l9.183-11.43
				l9.811,12.275c0.568,0.705,1.462,1.071,2.297,1.071c0.622,0,1.348-0.286,1.869-0.701c1.232-0.981,1.329-2.759,0.344-3.987
				L890.849,1032.795z M842.759,1015.382c-8.793,0-15.953,7.776-15.953,17.331c0,9.482,7.159,17.2,15.953,17.2
				c5.402,0,10.378-2.946,13.312-7.888c0.708-1.275,0.351-2.865-0.895-3.811c-0.402-0.258-0.875-0.396-1.359-0.396
				c-0.94,0-1.776,0.503-2.23,1.329c-1.843,3.245-5.226,5.258-8.828,5.258c-5.335,0-9.759-4.245-10.55-9.989h23.731
				c1.484,0,2.643-1.153,2.643-2.624l-0.002-0.351C857.906,1022.289,851.103,1015.382,842.759,1015.382z M832.596,1028.975
				c1.441-4.869,5.432-8.084,10.163-8.084c4.636,0,8.647,3.286,9.998,8.084H832.596z M978.712,1044.319
				c-0.054-0.002-4.086-0.002-4.144-0.002c-1.537,0-3.327-0.884-3.327-3.368v-27.559c0-1.621-1.323-2.935-2.948-2.935
				c-1.568,0-2.94,1.372-2.94,2.935v27.559c0,5.449,3.617,8.968,9.215,8.968c0.071,0,4.114,0,4.183-0.004
				c1.451-0.103,2.596-1.32,2.596-2.796C981.347,1045.633,980.181,1044.405,978.712,1044.319z M1023.714,1035.223
				c-1.252-1.836-3.209-3.12-5.439-4.107c-2.174-0.944-4.731-1.585-7.505-2.08h-0.11c-2.933-0.495-5.378-1.292-6.793-2.181
				c-0.708-0.441-1.2-0.888-1.473-1.286c-0.269-0.391-0.378-0.793-0.378-1.381c0-1.043,0.596-2.131,2.071-3.12
				c1.464-0.989,3.641-1.684,6.086-1.684c3.316,0,5.981,1.484,8.757,3.166c1.303,0.791,3.045,0.445,3.858-0.742
				c0.871-1.138,0.492-2.723-0.757-3.514c-2.776-1.632-6.639-3.959-11.858-3.959c-3.536,0-6.847,0.94-9.406,2.621
				c-2.503,1.69-4.353,4.258-4.353,7.232c0,1.48,0.437,2.869,1.254,4.054c1.193,1.733,2.989,2.972,5.051,3.86
				c2.067,0.89,4.464,1.486,7.015,1.929h0.114c3.206,0.546,5.873,1.387,7.449,2.327c0.815,0.497,1.303,0.989,1.632,1.486
				c0.325,0.497,0.486,0.938,0.486,1.581c0,1.241-0.703,2.477-2.34,3.566c-1.628,1.088-4.075,1.832-6.793,1.832
				c-3.862,0.049-7.996-2.03-10.387-3.809c-1.198-0.897-2.991-0.746-3.97,0.34c-0.927,1.09-0.761,2.725,0.437,3.613
				c3.101,2.232,8.045,4.905,13.92,4.95c3.86,0,7.396-1.036,10.062-2.817c2.716-1.787,4.673-4.503,4.673-7.675
				C1025.017,1037.891,1024.531,1036.41,1023.714,1035.223z M933.567,1015.382c-8.796,0-15.95,7.776-15.95,17.331
				c0,9.482,7.155,17.2,15.95,17.2c5.409,0,10.376-2.946,13.316-7.888c0.705-1.275,0.348-2.865-0.892-3.811
				c-0.406-0.258-0.877-0.396-1.363-0.396c-0.94,0-1.774,0.503-2.23,1.329c-1.841,3.245-5.224,5.258-8.83,5.258
				c-5.333,0-9.759-4.245-10.55-9.989h23.735c1.482,0,2.643-1.153,2.643-2.624l-0.002-0.351
				C948.717,1022.289,941.915,1015.382,933.567,1015.382z M923.403,1028.975c1.441-4.869,5.434-8.084,10.163-8.084
				c4.645,0,8.649,3.286,9.998,8.084H923.403z"/>
		</g>
		<g>
			<path d="M545.038,1034.451c0,1.028,0.01,1.961,0.03,2.798c0.021,0.836,0.111,1.658,0.272,2.464h-1.633l-0.604-2.146h-0.122
				c-0.403,0.705-0.988,1.29-1.754,1.755c-0.767,0.462-1.664,0.694-2.693,0.694c-2.016,0-3.513-0.634-4.491-1.905
				c-0.977-1.271-1.467-3.256-1.467-5.959c0-2.581,0.61-4.54,1.83-5.882c1.219-1.34,2.898-2.011,5.036-2.011
				c0.746,0,1.335,0.041,1.77,0.12c0.433,0.082,0.902,0.211,1.406,0.394v-6.292h2.419V1034.451z M538.929,1037.9
				c1.028,0,1.845-0.269,2.451-0.802c0.604-0.533,1.017-1.346,1.24-2.434v-7.501c-0.363-0.282-0.776-0.484-1.24-0.604
				c-0.465-0.123-1.08-0.183-1.845-0.183c-1.391,0-2.481,0.46-3.267,1.376c-0.786,0.918-1.18,2.385-1.18,4.4
				c0,0.828,0.066,1.594,0.197,2.299c0.13,0.707,0.347,1.312,0.649,1.815c0.303,0.505,0.701,0.903,1.196,1.196
				C537.623,1037.754,538.223,1037.9,538.929,1037.9z"/>
			<path d="M560.736,1038.444c-0.605,0.484-1.367,0.867-2.284,1.148c-0.918,0.282-1.89,0.424-2.918,0.424
				c-1.149,0-2.148-0.187-2.995-0.559c-0.847-0.374-1.543-0.907-2.087-1.604c-0.544-0.695-0.948-1.527-1.21-2.495
				c-0.262-0.968-0.394-2.056-0.394-3.267c0-2.581,0.575-4.546,1.725-5.897c1.148-1.351,2.792-2.028,4.929-2.028
				c0.686,0,1.371,0.077,2.057,0.228c0.685,0.151,1.301,0.439,1.845,0.862c0.544,0.424,0.987,1.024,1.331,1.8
				c0.342,0.776,0.514,1.798,0.514,3.069c0,0.667-0.061,1.402-0.182,2.208h-9.708c0,0.886,0.09,1.673,0.272,2.359
				c0.182,0.686,0.463,1.265,0.847,1.738c0.383,0.475,0.882,0.839,1.497,1.09s1.366,0.379,2.253,0.379
				c0.686,0,1.371-0.123,2.057-0.363c0.685-0.243,1.2-0.525,1.543-0.847L560.736,1038.444z M555.534,1026.285
				c-1.19,0-2.143,0.312-2.859,0.938c-0.715,0.626-1.144,1.695-1.285,3.206h7.501c0-1.533-0.293-2.606-0.877-3.222
				C557.428,1026.593,556.602,1026.285,555.534,1026.285z"/>
			<path d="M571.714,1035.541c0-0.606-0.182-1.08-0.544-1.422c-0.363-0.344-0.812-0.63-1.346-0.862
				c-0.534-0.232-1.119-0.454-1.754-0.667c-0.636-0.211-1.22-0.484-1.755-0.815c-0.534-0.333-0.983-0.761-1.346-1.286
				c-0.362-0.525-0.544-1.23-0.544-2.118c0-1.452,0.413-2.514,1.24-3.189s1.976-1.015,3.448-1.015c1.089,0,2.001,0.097,2.738,0.288
				c0.735,0.191,1.375,0.419,1.92,0.682l-0.575,1.996c-0.463-0.222-1.023-0.419-1.678-0.589c-0.655-0.172-1.356-0.258-2.102-0.258
				c-0.887,0-1.537,0.151-1.95,0.454c-0.414,0.303-0.62,0.826-0.62,1.572c0,0.525,0.182,0.933,0.545,1.226
				c0.362,0.292,0.811,0.555,1.345,0.787c0.534,0.23,1.119,0.458,1.755,0.68c0.635,0.222,1.219,0.514,1.754,0.877
				c0.534,0.363,0.983,0.822,1.346,1.376c0.362,0.555,0.544,1.284,0.544,2.191c0,0.647-0.105,1.252-0.317,1.815
				c-0.212,0.566-0.54,1.049-0.983,1.452c-0.444,0.404-0.994,0.722-1.648,0.953c-0.656,0.232-1.427,0.348-2.314,0.348
				c-1.149,0-2.128-0.112-2.933-0.333c-0.807-0.222-1.483-0.484-2.027-0.785l0.726-2.058c0.463,0.262,1.069,0.505,1.815,0.727
				c0.745,0.222,1.501,0.333,2.268,0.333c0.867,0,1.583-0.172,2.147-0.516C571.431,1037.042,571.714,1036.427,571.714,1035.541z"/>
			<path d="M577.792,1019.935c0-0.465,0.156-0.862,0.469-1.196c0.312-0.333,0.711-0.499,1.195-0.499c0.484,0,0.897,0.166,1.24,0.499
				c0.343,0.333,0.514,0.731,0.514,1.196c0,0.462-0.171,0.845-0.514,1.148c-0.343,0.303-0.756,0.454-1.24,0.454
				c-0.484,0-0.883-0.151-1.195-0.454C577.948,1020.78,577.792,1020.397,577.792,1019.935z M578.306,1024.53h2.419v15.122h-2.419
				V1024.53z"/>
			<path d="M597.482,1040.349c0,1.955-0.519,3.398-1.558,4.325c-1.039,0.927-2.575,1.391-4.612,1.391
				c-1.21,0-2.183-0.075-2.919-0.228c-0.736-0.151-1.366-0.346-1.89-0.589l0.635-2.056c0.463,0.181,0.977,0.353,1.543,0.514
				c0.563,0.161,1.3,0.241,2.208,0.241c0.847,0,1.538-0.075,2.072-0.226c0.533-0.151,0.962-0.404,1.285-0.757
				c0.323-0.353,0.544-0.806,0.666-1.361c0.12-0.555,0.182-1.215,0.182-1.981v-1.452h-0.122c-0.403,0.585-0.917,1.034-1.542,1.346
				c-0.626,0.312-1.442,0.469-2.451,0.469c-2.037,0-3.533-0.634-4.491-1.905c-0.958-1.271-1.437-3.247-1.437-5.929
				c0-2.581,0.615-4.54,1.845-5.882c1.23-1.34,3.044-2.011,5.444-2.011c1.149,0,2.132,0.09,2.949,0.271
				c0.816,0.183,1.546,0.394,2.192,0.637V1040.349z M591.402,1037.868c1.028,0,1.834-0.256,2.419-0.77
				c0.585-0.514,0.999-1.316,1.241-2.404v-7.744c-0.807-0.383-1.835-0.574-3.085-0.574c-1.372,0-2.451,0.464-3.237,1.391
				c-0.786,0.927-1.18,2.381-1.18,4.355c0,0.847,0.07,1.624,0.212,2.329c0.141,0.707,0.362,1.312,0.666,1.815
				c0.302,0.505,0.696,0.897,1.18,1.181C590.102,1037.728,590.697,1037.868,591.402,1037.868z"/>
			<path d="M611.847,1039.653v-8.619c0-1.572-0.227-2.757-0.681-3.553c-0.454-0.798-1.285-1.196-2.496-1.196
				c-1.069,0-1.951,0.288-2.646,0.862c-0.696,0.574-1.185,1.295-1.467,2.161v10.344h-2.419v-15.122h1.694l0.454,1.845h0.12
				c0.484-0.645,1.134-1.174,1.952-1.587c0.816-0.413,1.789-0.621,2.918-0.621c0.827,0,1.553,0.097,2.177,0.288
				c0.625,0.191,1.144,0.529,1.558,1.013c0.413,0.484,0.726,1.135,0.938,1.951c0.212,0.817,0.317,1.852,0.317,3.101v9.133H611.847z"
				/>
			<path d="M629.722,1038.444c-0.605,0.484-1.367,0.867-2.284,1.148c-0.918,0.282-1.89,0.424-2.918,0.424
				c-1.149,0-2.148-0.187-2.995-0.559c-0.847-0.374-1.543-0.907-2.087-1.604c-0.544-0.695-0.948-1.527-1.21-2.495
				c-0.262-0.968-0.394-2.056-0.394-3.267c0-2.581,0.575-4.546,1.725-5.897c1.148-1.351,2.793-2.028,4.929-2.028
				c0.686,0,1.371,0.077,2.057,0.228c0.685,0.151,1.301,0.439,1.845,0.862c0.544,0.424,0.987,1.024,1.331,1.8
				c0.342,0.776,0.514,1.798,0.514,3.069c0,0.667-0.061,1.402-0.182,2.208h-9.708c0,0.886,0.09,1.673,0.272,2.359
				c0.182,0.686,0.463,1.265,0.847,1.738c0.383,0.475,0.882,0.839,1.497,1.09s1.366,0.379,2.253,0.379
				c0.686,0,1.371-0.123,2.057-0.363c0.685-0.243,1.2-0.525,1.543-0.847L629.722,1038.444z M624.52,1026.285
				c-1.19,0-2.143,0.312-2.859,0.938c-0.715,0.626-1.144,1.695-1.285,3.206h7.501c0-1.533-0.292-2.606-0.877-3.222
				C626.414,1026.593,625.587,1026.285,624.52,1026.285z"/>
			<path d="M645.66,1034.451c0,1.028,0.01,1.961,0.03,2.798c0.02,0.836,0.111,1.658,0.272,2.464h-1.633l-0.604-2.146h-0.121
				c-0.403,0.705-0.988,1.29-1.754,1.755c-0.767,0.462-1.663,0.694-2.692,0.694c-2.016,0-3.513-0.634-4.491-1.905
				c-0.977-1.271-1.467-3.256-1.467-5.959c0-2.581,0.61-4.54,1.83-5.882c1.219-1.34,2.898-2.011,5.035-2.011
				c0.746,0,1.335,0.041,1.77,0.12c0.433,0.082,0.902,0.211,1.406,0.394v-6.292h2.419V1034.451z M639.551,1037.9
				c1.028,0,1.845-0.269,2.451-0.802c0.604-0.533,1.017-1.346,1.24-2.434v-7.501c-0.363-0.282-0.776-0.484-1.24-0.604
				c-0.465-0.123-1.08-0.183-1.845-0.183c-1.391,0-2.481,0.46-3.267,1.376c-0.786,0.918-1.18,2.385-1.18,4.4
				c0,0.828,0.066,1.594,0.197,2.299c0.13,0.707,0.347,1.312,0.649,1.815c0.303,0.505,0.701,0.903,1.196,1.196
				C638.245,1037.754,638.845,1037.9,639.551,1037.9z"/>
			<path d="M658.393,1018.481h2.419v7.531h0.122c0.463-0.583,1.053-1.036,1.769-1.359c0.715-0.323,1.497-0.486,2.344-0.486
				c1.956,0,3.423,0.626,4.401,1.875c0.977,1.252,1.467,3.187,1.467,5.808c0,2.641-0.646,4.647-1.935,6.017
				c-1.291,1.372-3.105,2.058-5.444,2.058c-1.13,0-2.153-0.12-3.07-0.364c-0.918-0.241-1.609-0.503-2.072-0.787V1018.481z
				 M664.623,1026.285c-1.009,0-1.825,0.282-2.449,0.847c-0.626,0.563-1.08,1.361-1.361,2.389v7.621
				c0.383,0.221,0.847,0.389,1.391,0.499c0.544,0.112,1.109,0.166,1.694,0.166c1.371,0,2.466-0.484,3.282-1.452
				c0.816-0.968,1.225-2.479,1.225-4.535c0-0.787-0.071-1.523-0.212-2.209c-0.141-0.686-0.362-1.271-0.666-1.755
				c-0.302-0.484-0.69-0.867-1.163-1.148C665.889,1026.427,665.308,1026.285,664.623,1026.285z"/>
			<path d="M678.822,1034.33l0.85,2.903h0.152l0.668-2.933l2.944-9.77h2.419l-4.475,13.58c-0.344,0.987-0.681,1.946-1.014,2.873
				c-0.332,0.927-0.701,1.755-1.103,2.48c-0.404,0.727-0.858,1.305-1.361,1.74c-0.504,0.432-1.089,0.649-1.755,0.649
				c-0.726,0-1.32-0.101-1.784-0.301l0.424-2.088c0.261,0.101,0.514,0.153,0.756,0.153c0.565,0,1.109-0.299,1.633-0.893
				c0.524-0.596,0.957-1.619,1.3-3.071l-6.078-15.122h2.782L678.822,1034.33z"/>
		</g>
	</g>
</g>
</svg>
