<?xml version="1.0" encoding="utf-8"?>
<!--Designed by Vexels.com - 2017 All Rights Reserved - https://vexels.com/terms-and-conditions/-->
<svg version="1.1" id="Layer_1" xmlns="http://www.w3.org/2000/svg" xmlns:xlink="http://www.w3.org/1999/xlink" x="0px" y="0px"
	 viewBox="0 0 1200 1200" enable-background="new 0 0 1200 1200" xml:space="preserve">
<g>
	<g>
		<g>
			<path fill="#C81F4F" d="M666.986,724.151l15.625,113.619c6.484,47.148-7.082,94.856-37.403,131.538l-107.339,129.859
				c-6.293,7.613-18.661,3.191-18.7-6.687l-0.385-97.833c-0.119-30.27-8.314-59.959-23.739-86.005l-25.885-43.707L666.986,724.151z"
				/>
			<path fill="#C81F4F" d="M447.882,459.982L339.11,423.62c-45.136-15.089-94.53-10.578-136.186,12.438L55.458,517.535
				c-8.645,4.777-6.586,17.749,3.114,19.614l96.075,18.467c29.726,5.714,57.388,19.257,80.133,39.231l38.167,33.52L447.882,459.982z
				"/>
		</g>
		<g>
			<path fill="#F8A547" d="M427.522,811.323l-54.792-66.062L317.938,679.2c0,0-61.689-22.799-137.191,49.214
				c-75.502,72.013-68.069,232.537-68.069,232.537s156.382,36.984,241.113-23.901C438.522,876.164,427.522,811.323,427.522,811.323z
				"/>
			<path fill="#FFF2C1" d="M395.396,772.589l-22.666-27.327l-22.666-27.327c0,0-27.707-7.616-65.856,27.91
				c-38.149,35.526-41.505,107.262-41.505,107.262s71.12,9.966,113.087-20.957S395.396,772.589,395.396,772.589z"/>
		</g>
		<path fill="#C81F4F" d="M1149.717,121.554c2.332-9.882-10.231-25.031-20.374-24.565c-40.568,3.128-104.16,5.612-171.051,20.849
			c46.395,55.937,93.014,112.145,139.258,167.9C1124.934,222.934,1139.136,160.867,1149.717,121.554z"/>
		<path fill="#6AC2FF" d="M970.984,492.256c18.33-21.781,43.067-55.826,64.894-90.571c22.146-35.134,41.553-70.832,56.811-105.058
			c1.672-3.63,3.279-7.26,4.861-10.889c-46.244-55.756-92.863-111.963-139.258-167.9c-3.899,0.888-7.806,1.802-11.723,2.779
			c-36.266,8.712-74.946,21.186-113.573,36.454c-38.185,15.028-76.213,33.04-101.011,47.03
			c-55.748,32.851-256.558,206.793-321.608,265.543c-51.552,47.104-93.262,83.409-119.642,107.422c0,0-0.001-0.001-0.001-0.001
			c-5.542,4.878-11.101,9.732-16.678,14.556c-19.464,16.876-23.115,45.084-7.79,63.559c58.473,70.5,116.946,141,175.419,211.499
			c15.323,18.476,43.72,20.105,63.904,4.096c5.773-4.588,11.57-9.154,17.39-13.698c-0.038-0.046-0.076-0.092-0.114-0.137
			c28.478-21.487,71.866-55.764,127.691-97.719C720.323,706.157,928.394,540.967,970.984,492.256z"/>
		<path fill="#3BAFFF" d="M469.689,417.172c-24.314,21.219-45.068,39.607-59.312,52.472
			c-51.552,47.104-93.262,83.409-119.642,107.422c0,0-0.001-0.001-0.001-0.001c-5.542,4.878-11.101,9.732-16.678,14.556
			c-19.464,16.876-23.115,45.084-7.79,63.559c58.473,70.5,116.946,141,175.419,211.499c15.323,18.476,43.72,20.105,63.904,4.096
			c5.773-4.588,11.57-9.154,17.39-13.698c-0.038-0.046-0.076-0.092-0.114-0.137c28.478-21.487,71.866-55.764,127.691-97.719
			c15.277-11.62,37.184-28.615,62.533-48.586c-42.357-39.113-87.045-86.242-130.892-139.108
			C538.35,518.662,500.296,466.03,469.689,417.172z"/>
		<path fill="#C81F4F" d="M234.839,859.63c9.553,11.518,27.291,13.183,51.031-4.046c52.132-37.835,112.591-87.086,164.714-134.597
			c78.41-71.472,119.101-122.524,110.966-132.333c-8.135-9.808-65.831,20.742-150.568,84.585
			c-56.329,42.44-115.909,92.75-162.731,136.988C226.93,830.371,225.286,848.111,234.839,859.63L234.839,859.63z"/>
		<circle fill="#3BAFFF" cx="828.533" cy="367.215" r="111.433"/>
		<circle fill="#193866" cx="828.533" cy="367.215" r="91.588"/>
	</g>
	<path opacity="0.11" d="M1043.484,187.774c-121.649,60.825-238.619,121.649-327.517,219.904
		c-84.219,88.897-196.51,126.328-266.692,229.262C361.48,770.942,246.292,850.186,112.75,933.254
		c-0.556,17.016-0.072,27.697-0.072,27.697s156.382,36.984,241.113-23.901c45.916-32.994,63.695-67.128,70.371-91.497
		c5.841,7.042,11.682,14.085,17.523,21.128c9.234,11.134,23.216,16.103,37.288,14.828l16.071,27.136
		c15.425,26.045,23.62,55.735,23.739,86.005l0.385,97.832c0.039,9.877,12.407,14.3,18.7,6.686l107.339-129.859
		c30.321-36.683,43.887-84.391,37.403-131.539l-12.831-93.305c0.725-0.561,1.479-1.145,2.218-1.718
		c1.213-0.939,2.451-1.899,3.703-2.87c1.559-1.209,3.144-2.44,4.76-3.697c1.31-1.019,2.627-2.043,3.972-3.091
		c1.62-1.262,3.276-2.554,4.945-3.857c1.387-1.083,2.761-2.155,4.18-3.265c1.797-1.406,3.643-2.852,5.49-4.3
		c1.395-1.094,2.765-2.166,4.188-3.283c2.347-1.842,4.755-3.737,7.171-5.639c90.424-71.172,226.977-182.061,260.577-220.489
		c18.33-21.782,43.067-55.826,64.893-90.571c22.147-35.134,41.553-70.832,56.812-105.058c1.672-3.629,3.278-7.26,4.861-10.889
		c27.384-62.805,41.587-124.871,52.167-164.185c2.105-8.919-7.923-22.09-17.355-24.236
		C1102.258,128.827,1082.72,168.156,1043.484,187.774z"/>
</g>
</svg>
